<?xml version="1.0" encoding="utf-8"?>
<!-- Generator: Adobe Illustrator 18.1.1, SVG Export Plug-In . SVG Version: 6.00 Build 0)  -->
<svg version="1.1" id="Layer_1" xmlns="http://www.w3.org/2000/svg" xmlns:xlink="http://www.w3.org/1999/xlink" x="0px" y="0px"
	 viewBox="0 0 595.3 537.7" enable-background="new 0 0 595.3 537.7" xml:space="preserve">
<title>home-hero</title>
<g>
	<g id="_x30_2fd7753-756e-4208-a540-d2de42971ccc">
		
			<linearGradient id="SVGID_1_" gradientUnits="userSpaceOnUse" x1="-732.8679" y1="1166.1602" x2="777.6183" y2="616.3875" gradientTransform="matrix(0.3569 0 0 -0.3569 257.213 482.4338)">
			<stop  offset="0" style="stop-color:#150773"/>
			<stop  offset="0.54" style="stop-color:#5333ED"/>
			<stop  offset="0.93" style="stop-color:#2CD4D9"/>
		</linearGradient>
		<polygon fill="url(#SVGID_1_)" points="0,0.4 0,323.3 0,351.8 595.3,68.3 595.3,0.4 		"/>
		<g>
			
				<linearGradient id="SVGID_2_" gradientUnits="userSpaceOnUse" x1="237.4118" y1="1020.3273" x2="237.4121" y2="1383.7505" gradientTransform="matrix(0.3569 0 0 -0.3569 257.213 482.4338)">
				<stop  offset="0" style="stop-color:#2CD4D9;stop-opacity:0.5"/>
				<stop  offset="0.24" style="stop-color:#2CD4D9;stop-opacity:0.4"/>
				<stop  offset="0.74" style="stop-color:#2CD4D9;stop-opacity:0.15"/>
				<stop  offset="1" style="stop-color:#2CD4D9;stop-opacity:0"/>
			</linearGradient>
			<polyline fill="none" stroke="url(#SVGID_2_)" stroke-width="2.1139" stroke-miterlimit="10" points="343,118.2 343,57.2 
				339.9,54.1 339.9,24.8 344,20.7 344,-11.5 			"/>
			
				<circle opacity="0.3" fill="none" stroke="#2CD4D9" stroke-width="2.1139" stroke-miterlimit="10" enable-background="new    " cx="343.8" cy="44.5" r="0.5"/>
			
				<circle opacity="0.3" fill="none" stroke="#2CD4D9" stroke-width="2.1139" stroke-miterlimit="10" enable-background="new    " cx="343.8" cy="42" r="0.5"/>
			
				<linearGradient id="SVGID_3_" gradientUnits="userSpaceOnUse" x1="313.6137" y1="1029.2371" x2="313.6137" y2="1397.3496" gradientTransform="matrix(0.3569 0 0 -0.3569 257.213 482.4338)">
				<stop  offset="0" style="stop-color:#2CD4D9;stop-opacity:0.5"/>
				<stop  offset="0.24" style="stop-color:#2CD4D9;stop-opacity:0.4"/>
				<stop  offset="0.74" style="stop-color:#2CD4D9;stop-opacity:0.15"/>
				<stop  offset="1" style="stop-color:#2CD4D9;stop-opacity:0"/>
			</linearGradient>
			
				<line fill="none" stroke="url(#SVGID_3_)" stroke-width="2.1139" stroke-miterlimit="10" x1="369.2" y1="115.1" x2="369.2" y2="-16.3"/>
			
				<linearGradient id="SVGID_4_" gradientUnits="userSpaceOnUse" x1="61.7966" y1="1372.2616" x2="61.7966" y2="905.6731" gradientTransform="matrix(0.3569 0 0 -0.3569 257.213 482.4338)">
				<stop  offset="0" style="stop-color:#2CD4D9;stop-opacity:0"/>
				<stop  offset="1" style="stop-color:#2CD4D9;stop-opacity:0.5"/>
			</linearGradient>
			<polyline fill="none" stroke="url(#SVGID_4_)" stroke-width="2.1139" stroke-miterlimit="10" points="279.3,-7.4 279.3,113.9 
				279.3,159.2 			"/>
			
				<linearGradient id="SVGID_5_" gradientUnits="userSpaceOnUse" x1="172.9337" y1="1004.1491" x2="172.9339" y2="1244.0455" gradientTransform="matrix(0.3569 0 0 -0.3569 257.213 482.4338)">
				<stop  offset="0" style="stop-color:#2CD4D9;stop-opacity:0.5"/>
				<stop  offset="0.54" style="stop-color:#2CD4D9;stop-opacity:0.4"/>
				<stop  offset="1" style="stop-color:#2CD4D9;stop-opacity:0.3"/>
			</linearGradient>
			<polyline fill="none" stroke="url(#SVGID_5_)" stroke-width="2.1139" stroke-miterlimit="10" points="321.6,124 321.6,92.5 
				316.3,87.1 316.3,43.3 320.8,38.7 			"/>
			
				<linearGradient id="SVGID_6_" gradientUnits="userSpaceOnUse" x1="129.9091" y1="1000.6321" x2="129.9091" y2="1382.5781" gradientTransform="matrix(0.3569 0 0 -0.3569 257.213 482.4338)">
				<stop  offset="0" style="stop-color:#2CD4D9;stop-opacity:0.8"/>
				<stop  offset="7.000000e-002" style="stop-color:#2CD4D9;stop-opacity:0.69"/>
				<stop  offset="0.23" style="stop-color:#2CD4D9;stop-opacity:0.48"/>
				<stop  offset="0.39" style="stop-color:#2CD4D9;stop-opacity:0.31"/>
				<stop  offset="0.55" style="stop-color:#2CD4D9;stop-opacity:0.17"/>
				<stop  offset="0.7" style="stop-color:#2CD4D9;stop-opacity:8.000000e-002"/>
				<stop  offset="0.85" style="stop-color:#2CD4D9;stop-opacity:2.000000e-002"/>
				<stop  offset="1" style="stop-color:#2CD4D9;stop-opacity:0"/>
			</linearGradient>
			<polyline fill="none" stroke="url(#SVGID_6_)" stroke-width="2.1139" stroke-miterlimit="10" points="304.5,125.3 304.5,95.2 
				298.9,89.7 298.9,54.7 308.3,45.3 308.3,-11.1 			"/>
			
				<linearGradient id="SVGID_7_" gradientUnits="userSpaceOnUse" x1="178.7953" y1="1265.3448" x2="178.7954" y2="1343.8912" gradientTransform="matrix(0.3569 0 0 -0.3569 257.213 482.4338)">
				<stop  offset="0" style="stop-color:#2CD4D9;stop-opacity:0.5"/>
				<stop  offset="0.24" style="stop-color:#2CD4D9;stop-opacity:0.4"/>
				<stop  offset="0.74" style="stop-color:#2CD4D9;stop-opacity:0.15"/>
				<stop  offset="1" style="stop-color:#2CD4D9;stop-opacity:0"/>
			</linearGradient>
			<line fill="none" stroke="url(#SVGID_7_)" stroke-width="2.1139" stroke-miterlimit="10" x1="321" y1="30.8" x2="321" y2="2.8"/>
			
				<circle opacity="0.3" fill="none" stroke="#2CD4D9" stroke-width="2.1139" stroke-miterlimit="10" enable-background="new    " cx="321" cy="36.6" r="0.5"/>
			
				<circle opacity="0.3" fill="none" stroke="#2CD4D9" stroke-width="2.1139" stroke-miterlimit="10" enable-background="new    " cx="321" cy="31.5" r="0.5"/>
			
				<linearGradient id="SVGID_8_" gradientUnits="userSpaceOnUse" x1="99.7802" y1="947.0546" x2="99.7802" y2="1271.3256" gradientTransform="matrix(0.3569 0 0 -0.3569 257.213 482.4338)">
				<stop  offset="0" style="stop-color:#5333ED"/>
				<stop  offset="0.73" style="stop-color:#5333ED;stop-opacity:0.27"/>
				<stop  offset="1" style="stop-color:#5333ED;stop-opacity:0"/>
			</linearGradient>
			<polyline fill="none" stroke="url(#SVGID_8_)" stroke-width="2.1139" stroke-linecap="round" stroke-linejoin="round" points="
				290.1,144 290.1,87.9 295.5,82.5 295.5,29 			"/>
			
				<linearGradient id="SVGID_9_" gradientUnits="userSpaceOnUse" x1="58.6313" y1="881.8729" x2="58.6313" y2="1400.7512" gradientTransform="matrix(0.3569 0 0 -0.3569 257.213 482.4338)">
				<stop  offset="0" style="stop-color:#5333ED"/>
				<stop  offset="0.17" style="stop-color:#5333ED;stop-opacity:0.85"/>
				<stop  offset="0.55" style="stop-color:#5333ED;stop-opacity:0.48"/>
				<stop  offset="1" style="stop-color:#5333ED;stop-opacity:0"/>
			</linearGradient>
			<polyline fill="none" stroke="url(#SVGID_9_)" stroke-width="2.1139" stroke-linecap="round" stroke-linejoin="round" points="
				275.5,167.3 275.5,131 275.5,43.2 280.8,37.9 280.8,-17.2 			"/>
			
				<linearGradient id="SVGID_10_" gradientUnits="userSpaceOnUse" x1="215.255" y1="1011.2985" x2="215.255" y2="1392.0759" gradientTransform="matrix(0.3569 0 0 -0.3569 257.213 482.4338)">
				<stop  offset="0" style="stop-color:#5333ED;stop-opacity:0.6"/>
				<stop  offset="0.14" style="stop-color:#5333ED;stop-opacity:0.58"/>
				<stop  offset="0.32" style="stop-color:#5333ED;stop-opacity:0.51"/>
				<stop  offset="0.51" style="stop-color:#5333ED;stop-opacity:0.4"/>
				<stop  offset="0.73" style="stop-color:#5333ED;stop-opacity:0.25"/>
				<stop  offset="0.95" style="stop-color:#5333ED;stop-opacity:5.000000e-002"/>
				<stop  offset="1" style="stop-color:#5333ED;stop-opacity:0"/>
			</linearGradient>
			<polyline fill="none" stroke="url(#SVGID_10_)" stroke-width="2.1139" stroke-linecap="round" stroke-linejoin="round" points="
				331.4,121.1 331.4,11.5 336.7,6.2 336.7,-14.1 			"/>
			
				<linearGradient id="SVGID_11_" gradientUnits="userSpaceOnUse" x1="83.0158" y1="1403.9188" x2="83.0158" y2="953.0354" gradientTransform="matrix(0.3569 0 0 -0.3569 257.213 482.4338)">
				<stop  offset="0" style="stop-color:#2CD4D9;stop-opacity:0"/>
				<stop  offset="1" style="stop-color:#2CD4D9;stop-opacity:0.5"/>
			</linearGradient>
			<polyline fill="none" stroke="url(#SVGID_11_)" stroke-width="2.1139" stroke-miterlimit="10" points="286.6,-18.7 287.1,87.6 
				287.1,142.3 			"/>
			<path fill="#2CD4D9" fill-opacity="0.2" d="M429.9,155.7l-57.3-33.1l-78.3,12.1l-21,45.2l57.3,33.1l78.2-12.1L429.9,155.7z"/>
			<path fill="#2CD4D9" fill-opacity="0.5" d="M429.9,151.3l-57.3-33.1l-78.2,12.1l-21,45.2l57.3,33.1l78.2-12.1L429.9,151.3z"/>
			
				<linearGradient id="SVGID_12_" gradientUnits="userSpaceOnUse" x1="280.9893" y1="903.2828" x2="-54.8907" y2="951.9527" gradientTransform="matrix(0.3569 0 0 -0.3569 257.213 482.4338)">
				<stop  offset="0" style="stop-color:#2CD4D9"/>
				<stop  offset="0.16" style="stop-color:#2CD4D9;stop-opacity:0.8"/>
				<stop  offset="0.34" style="stop-color:#2CD4D9;stop-opacity:0.62"/>
				<stop  offset="0.52" style="stop-color:#2CD4D9;stop-opacity:0.48"/>
				<stop  offset="0.69" style="stop-color:#2CD4D9;stop-opacity:0.38"/>
				<stop  offset="0.85" style="stop-color:#2CD4D9;stop-opacity:0.32"/>
				<stop  offset="1" style="stop-color:#2CD4D9;stop-opacity:0.3"/>
			</linearGradient>
			<path fill="url(#SVGID_12_)" d="M429.9,147L372.6,114l-78.2,12.1l-21,45.2l57.3,33.1l78.2-12.1L429.9,147z M329.5,171.9
				c-12.2-7-12.2-18.5,0-25.5c12.2-7,32-7,44.2,0c12.2,7,12.2,18.5,0,25.5C361.5,178.9,341.7,178.9,329.5,171.9z"/>
			
				<linearGradient id="SVGID_13_" gradientUnits="userSpaceOnUse" x1="413.7434" y1="899.0177" x2="160.0735" y2="818.7477" gradientTransform="matrix(0.3569 0 0 -0.3569 257.213 482.4338)">
				<stop  offset="0" style="stop-color:#5333ED"/>
				<stop  offset="5.000000e-002" style="stop-color:#5333ED;stop-opacity:0.91"/>
				<stop  offset="0.19" style="stop-color:#5333ED;stop-opacity:0.67"/>
				<stop  offset="0.34" style="stop-color:#5333ED;stop-opacity:0.46"/>
				<stop  offset="0.48" style="stop-color:#5333ED;stop-opacity:0.3"/>
				<stop  offset="0.62" style="stop-color:#5333ED;stop-opacity:0.17"/>
				<stop  offset="0.75" style="stop-color:#5333ED;stop-opacity:7.000000e-002"/>
				<stop  offset="0.88" style="stop-color:#5333ED;stop-opacity:2.000000e-002"/>
				<stop  offset="1" style="stop-color:#5333ED;stop-opacity:0"/>
			</linearGradient>
			<path fill="url(#SVGID_13_)" d="M404,139.9c-12.4,0-22.4,5.8-22.4,13c0,0.8,0.2,1.6,0.4,2.3c0.1,0.2,0.2,0.4,0.3,0.6
				c1.8,5.6-1,11.7-8.6,16.1c-12.2,7-32,7-44.2,0c-4-2.3-6.7-5.1-8-8l-48.1,7.4l57.2,33.1l78.2-12.1l16.3-35c0.4-0.7,0.8-1.3,1-2.1
				c0.3-0.8,0.3-1.5,0.3-2.3C426.4,145.7,416.4,139.9,404,139.9z"/>
			<path fill="#FFFFFF" fill-opacity="0.6" stroke="#FFFFFF" stroke-width="2.1139" stroke-miterlimit="10" d="M329.5,165.3
				c-12.2-7-12.2-18.5,0-25.5c12.2-7,32-7,44.2,0c12.2,7,12.2,18.5,0,25.5C361.5,172.3,341.7,172.4,329.5,165.3z"/>
			<path fill="none" stroke="#FFFFFF" stroke-width="2.1139" stroke-miterlimit="10" stroke-opacity="0.5" d="M329.5,162.9
				c-12.2-7-12.2-18.5,0-25.5c12.2-7,32-7,44.2,0c12.2,7,12.2,18.5,0,25.5C361.5,169.9,341.7,170,329.5,162.9z"/>
			<path fill="none" stroke="#FFFFFF" stroke-width="2.1139" stroke-miterlimit="10" stroke-opacity="0.2" d="M329.5,160.3
				c-12.2-7-12.2-18.5,0-25.5c12.2-7,32-7,44.2,0c12.2,7,12.2,18.5,0,25.5C361.5,167.4,341.7,167.4,329.5,160.3z"/>
			<g>
				<polygon fill="#9E684D" points="478.7,163.9 478.4,163.4 476.3,163 476.2,161.5 478.9,161.8 479.5,162.1 				"/>
				<path fill="#150773" d="M479.3,165.1l-1.6,1.9H477c0,0-0.1-0.1-0.1-0.3s0.5-0.2,0.5-0.2l0.8-1.7l0.3-1.5c0,0,0-0.3,0.5-0.3
					l0.2-1.3c0,0,1.1-0.1,1.7,0.3L479.3,165.1z"/>
				<path fill="#5333ED" d="M480.6,162.1l-1.3,2.6c-0.2,0.3-0.3,0.5-0.5,0.8l-1.3,1.5h-0.7v0.3h0.8l1.4-1.7c0.3-0.3,0.4-0.5,0.5-0.8
					l1.2-2.5L480.6,162.1z"/>
				
					<rect x="478.5" y="163" transform="matrix(-0.2892 -0.9573 0.9573 -0.2892 460.5343 668.9527)" fill="#2CD4D9" width="0.2" height="0.9"/>
				
					<rect x="478.3" y="163.6" transform="matrix(-0.2892 -0.9573 0.9573 -0.2892 459.7518 669.4614)" fill="#2CD4D9" width="0.2" height="0.8"/>
				
					<rect x="478.1" y="164.3" transform="matrix(-0.2892 -0.9573 0.9573 -0.2892 458.9028 670.0848)" fill="#2CD4D9" width="0.2" height="0.7"/>
				
					<rect x="478" y="164.9" transform="matrix(-0.2892 -0.9573 0.9573 -0.2892 458.1945 670.5764)" fill="#2CD4D9" width="0.2" height="0.5"/>
				<path fill="#5333ED" d="M470.1,151.7c0.4-0.2,0.8-0.6,0.8-1c0.3-1.4,5.8,1,5.8,1c0.4,0.2,0.7,0.5,0.8,0.8c0.2,1.3,1,2.2,1.1,3.7
					c0.4,6-12,3.8-12,3.8c1.3-0.1,4.1,0,6.7,0.4c1.1,0.2,2-0.1,2.8-0.1c1.3,0,1.4,1.1,1.4,1.1v1.8c0,0-0.6,1-2.1,0.3
					c-1.7-0.8-2.9,0.6-4.2,0.4c-1.7-0.2-2.9-1.5-4.4-1.8c-3.1-0.7-5.2-1.7-3.7-3.2l9.5-2.8c0,0-4.2,3.4-6.9,1.3
					c-0.9-0.8-1.5-2.9-2.9-3.9c0,0,1.2,0.8,1.4,1.4c0.4,1.3,0.1,1.6,0.3,2.5c0.1,0.8,1.3,1.4,1.7,2.7c0.3,1.3-0.2,3.4-0.2,3.4
					l-1.5,0.1c0,0-1.4-0.6-1.9-1.5c-0.4-0.8,0.1-1.7-0.4-2.7c-0.2-0.3-1-0.9-1.3-1.5c-0.6-1.3-0.3-1.9-0.5-3.1
					c-0.4-1.6-0.4-3.1,0.3-3.8c0.8-0.8,1.7-1.1,2.8-1c1.3,0.3,1.4,1.1,2,1.3c0.9,0.4,1.4,0,2.3,0.4c0.6,0.3,0.8,1.1,1.3,1.3
					c0.8,0.3,1.3,0,1.1-0.3C469.1,151.6,470.1,151.7,470.1,151.7z"/>
				<polygon fill="#9E684D" points="466.3,164.5 465.8,163.2 464.5,163.5 465.3,165.2 				"/>
				
					<rect x="461" y="166.6" transform="matrix(0.8651 -0.5017 0.5017 0.8651 -20.9868 255.3739)" fill="#5333ED" width="6.4" height="0.3"/>
				<path fill="#150773" d="M467,165c-0.2-0.3-0.5-0.7-0.8-0.9l-0.9,0.7c-0.1-0.2-0.3-0.3-0.4-0.2c0,0-1.7,1.7-3.4,3.5v0.3L467,165z
					"/>
				
					<rect x="464.9" y="164.4" transform="matrix(0.2521 -0.9677 0.9677 0.2521 188.2342 573.1983)" fill="#2CD4D9" width="0.2" height="0.9"/>
				
					<rect x="464.5" y="164.8" transform="matrix(0.2521 -0.9677 0.9677 0.2521 187.556 573.1122)" fill="#2CD4D9" width="0.2" height="0.8"/>
				
					<rect x="463.9" y="165.3" transform="matrix(0.2521 -0.9677 0.9677 0.2521 186.7573 572.9257)" fill="#2CD4D9" width="0.2" height="0.7"/>
				
					<rect x="463.9" y="167.3" transform="matrix(0.2496 -0.9684 0.9684 0.2496 186.0067 575.033)" fill="#2CD4D9" width="0.2" height="0.5"/>
				
					<rect x="464.1" y="163.2" transform="matrix(0.9636 -0.2672 0.2672 0.9636 -26.7695 130.2381)" fill="#DFE9F8" width="2.1" height="0.5"/>
				
					<rect x="476.5" y="162.1" transform="matrix(0.1343 -0.9909 0.9909 0.1343 252.4625 613.7762)" fill="#DFE9F8" width="2.1" height="0.5"/>
				<path fill="#5333ED" d="M464.8,158.1c0,0-2.6,0.5-2.4,1.4c0,0.6,0.3,1.1,0.8,1.5c0.9,0.6,1.9,1,2.9,1.2V162c0,0-2.7-0.9-3.1-1.6
					c-0.5-0.9,0.1-1.3,0.4-1.4c0.3-0.1,1.7-0.6,1.7-0.6L464.8,158.1z"/>
				<path fill="#5333ED" d="M466.6,157.9c0,0,5.1-1.7,5.9-2.5c0,0-0.9,0-1.2,0.3c-0.6,0.5-4.4,1.8-5,2.1L466.6,157.9z"/>
				<ellipse transform="matrix(0.866 0.5 -0.5 0.866 139.0137 -216.7885)" fill="#120667" cx="474" cy="151" rx="3.8" ry="2.2"/>
				<rect x="472.5" y="151.6" fill="#5333ED" width="0.9" height="2"/>
				<rect x="475.4" y="152.2" fill="#5333ED" width="0.5" height="2"/>
				<path fill="#EBA87C" d="M457.9,155.4l-0.7,0.8c0,0,0.3,0.2,0.6-0.2l0.3-0.3l0.6-0.3l-0.7,0.5c0,0-0.4,0.8-0.1,0.9h0.6
					c0.1,0,0.2,0,0.3-0.1c0.1-0.1,0.1-0.2,0.2-0.3l0.5-0.3c0.3,0.3,1.7-0.8,1.7-0.8l-0.6-1L459,155l-0.3,0.1L457.9,155.4z"/>
				<path fill="#B7835F" d="M470.7,141.2l-2.2,1.3c-0.2,8.1-7.8,11.6-8,11.7c-0.1,0-0.9,0.3-1.1,0.5c-0.1,0.2-0.4,0.7-0.4,0.7
					l-0.2,0.8c0.3-0.1,0.5-0.3,0.5-0.6l0.5-0.3c0,0,0.8,0.6,1.4,0.1l0,0C472.3,151.5,470.7,141.2,470.7,141.2z"/>
				<path fill="#2CD4D9" d="M468.2,142.6c0,0-0.3,3.4-1.1,5.1l2.1,1.3c0.6-1,1.1-1.9,1.5-2.9L468.2,142.6z"/>
				<polygon fill="#DFE9F8" points="467.1,147.2 469.4,148.8 468.9,149.7 466.7,148.2 				"/>
				<path fill="#2CD4D9" d="M469.5,148.4c0,0-0.8-2-0.9-2.8l0.2-0.8c0,0,0.7,2.7,0.9,3.3L469.5,148.4z"/>
				<path fill="#B7835F" d="M480.5,145.4c0,0-1.8,1.8-1.7,2.6c1,7.9-8,9-8,9l0.3,1.3C485.1,157.7,480.5,145.4,480.5,145.4z"/>
				<path fill="#2CD4D9" d="M478.2,152.3c0,0,0.6-3.3,0.4-4.8l1.8-2.3c0,0,2.3,2.2,0.4,7.7L478.2,152.3z"/>
				<path fill="#B7835F" d="M467.2,157c0,0,1.5-0.2,1.6-0.2l2.4-0.1l0.2,1.3c-0.8,0.3-1.6,0.5-2.4,0.5l-0.8,0.2
					c-0.2,0.2-0.4,0.3-0.7,0.3l0.4-0.5l1-0.3l-1.2,0.1c-0.3,0.3-0.8,0.3-1.1,0l0.8-0.3l1-0.2h-1c-0.3,0.3-0.6,0.3-1,0.3l0.8-0.6
					l1-0.2l-1.3,0.1c-0.3,0.2-0.5,0.2-0.8,0L467.2,157z"/>
				<rect x="471.2" y="150.3" fill="#5333ED" width="0.5" height="2"/>
				<path fill="#2CD4D9" d="M479.4,144.5L479.4,144.5c0,0-4.9-2.8-6.2-3.6c-1.3-0.8-2.3-0.8-2.3-0.8c-1.5,0-2.8,1.3-2.8,2.8
					c0,0.3,0,0.6,0.2,0.9c0,0,1.3,4.2,1.8,5.3c0.3,1,1.2,2.2,2.6,2.9c1.3,0.8,2.7,1,3.7,0.8c0.3-0.1,0.6-0.2,0.8-0.3l0.3-0.3
					c1.3-1.3,3.7-4.3,3.7-4.3C481.6,146.5,480.9,145,479.4,144.5L479.4,144.5z"/>
				<g>
					<polygon fill="#2CD4D9" points="474.7,146.5 474.7,148.4 475,149.2 476.4,150.1 476.8,149.7 476.8,147.7 					"/>
					<polygon fill="#DFE9F8" points="474.7,146.2 476.8,147.5 476.8,147.9 474.7,146.7 					"/>
				</g>
				<polygon fill="#DFE9F8" points="477.7,152.9 480.9,153.5 481.4,152.3 477.9,151.8 				"/>
				
					<ellipse transform="matrix(0.5789 0.8154 -0.8154 0.5789 316.6376 -326.4697)" fill="none" stroke="#DFE9F8" stroke-width="1.3109" stroke-linecap="round" stroke-miterlimit="10" cx="474.4" cy="143.3" rx="1.1" ry="1.9"/>
				<circle fill="#0C022F" cx="473.5" cy="138.1" r="1.1"/>
				<path fill="#9E684D" d="M475.9,143.1V140h-2.9v4.3C473,145.2,475.4,144.4,475.9,143.1z"/>
				<path fill="#B7835F" d="M472.9,142.1v-1.5h2.9v0.8c-0.4,0.8-1.2,1.1-2.4,0.8C473.3,142.1,473.1,142.1,472.9,142.1z"/>
				<path fill="#B7835F" d="M476.5,140.2c0.1-0.3-0.2-0.6-0.4-0.7l0,0v-0.7c0-1-0.8-1.8-1.8-1.8c-1,0-1.8,0.8-1.8,1.8v1.5
					c0,1.3,0.7,1.6,1.6,1.7c0.8,0,1.6-0.5,1.9-1.3C476.2,140.6,476.4,140.5,476.5,140.2z"/>
				<path fill="#0C022F" d="M476.4,138.7c0,0,0.1-0.8-0.1-1.2c-0.2-0.3-0.4-0.3-0.7-0.3c0,0-0.3-0.8-0.9-0.5c0-0.2-0.1-0.3-0.3-0.3
					c0.2-0.2,0.2-0.4,0-0.6c0-0.1-0.1-0.1-0.2-0.1l0,0c0-0.1-0.1-0.3-0.2-0.3c-0.1,0-0.3,0.1-0.3,0.2l0,0c0,0,0,0,0,0.1
					c-0.1,0-0.2,0.1-0.3,0.3l0,0c-0.2,0-0.3,0.1-0.4,0.3l0,0c-0.3,0.2-0.4,0.4-0.5,0.7c-0.1,0.5,0.3,1,0.8,1c0.3,0,0.4,0,0.6-0.2
					l0,0c0,0,0.4-0.3,0.7-0.1c0.2,0.2,0.3,0.4,0.1,0.6l0,0c0,0,0,0.1,0,0.2c0,0.4,0.3,0.8,0.6,0.8l0,0c0,0.1-0.3,0.4-0.2,0.6
					l0.3,0.1c0-0.3,0.2-0.4,0.3-0.4c0,0,0.1,0,0.2,0C476.3,139.2,476.4,139,476.4,138.7z"/>
				<path fill="none" stroke="#DFE9F8" stroke-width="1.3109" stroke-linecap="round" stroke-miterlimit="10" d="M472.8,144.5
					c0.3,0.5,1.3,0.4,2.2-0.3c0.7-0.5,1-1.1,1-1.6"/>
				<g>
					<polygon fill="#150773" points="458.4,157.7 459,157.7 459.7,157.9 461,157.3 461.2,157.4 460.5,158.1 460.6,159.4 
						459.5,159.1 459.3,159 458.9,158.9 458.3,157.9 					"/>
					<path fill="#FFC398" d="M456,167.2c0.8,0,1.6,0.2,2.3,0.3c0.5,0.2,0.9-0.8,0.5-1.1c-0.3-0.3-2.1-0.4-2.1-0.4L456,167.2z"/>
					<path fill="#EBA87C" d="M459.1,164.2c0,0-2,2.8-3.4,3.3l-0.6-1.2l0.2-2l1-1.4L459.1,164.2z"/>
					<path fill="#EBA87C" d="M454.4,159.6c-0.1,0-2.9,1-3,1.1c-0.1,0.1-1.8,0.9-2,2c-0.3,1.1-0.6,1.6-0.8,1.8
						c-0.3,0.2-1.5,0.7-0.5,1.3c1,0.7,1.5-0.5,1.5-0.5c0.8,0.3,1.6,0.1,2.2-0.3c0.2,0.2,0.3,0.3,0.6,0.4l-0.1-0.3l0.5,0.5l-0.1-0.3
						l0.4,0.3v-0.3l0.8,1.3c-0.3-0.5-0.3-1.1-0.1-1.6L454.4,159.6z"/>
					<path fill="#FFC398" d="M456.6,163.1c-0.3,0.3-0.7,0.7-0.9,1.1c-0.2,0.3-0.5,0.8-0.3,1.2c0.3,0.3,0,0.8-0.1,1
						c-0.1,0.2-1.8,0.2-1.8,0.2s-0.8-1.1-0.3-1.8c0,0-0.3-2.1-0.2-2.8c0.2-0.5,0.3-1,0.6-1.4l0.8-0.1L456.6,163.1z"/>
					<path fill="#EBA87C" d="M459.5,154c0-0.1,1.3-1.6,1.9-1.4c0.7,0.2,0.3,1.6,0,1.9c-0.3,0.4-0.4,0.9-0.5,1.4
						C461,156,459.4,155,459.5,154z"/>
					<path fill="#FFC398" d="M460.2,154.4c-0.7-0.8-2.4-0.2-2.4-0.2s-1.2,1.5-1.5,2c-0.4,0.5-0.8,0.9-1.4,1.3l0.4,0.3l-0.5,0.1
						l0.5,0.3l-0.7,0.5h0.5c-0.3,0.3-0.5,0.4-0.8,0.6c-0.3,0.2-1.1,0.5-1.1,0.5l0.8,0.3l-0.5,0.7l1.4,0.8l2.8-3.8l3.8-1.3l-0.5-0.3
						C460.3,155.4,460.8,155.2,460.2,154.4z M455.9,158.9L455.9,158.9L455.9,158.9z"/>
					<path fill="#FFC398" d="M461.1,157.4l0.3,0.6l-0.3-0.1l0.4,0.4l-0.4-0.1l0.5,0.8L461,159v1.2l0.3,1.3l-1.3-0.6l0.4-1.5l0.4-1.5
						L461.1,157.4z"/>
					<path fill="#EBA87C" d="M455.2,152.5c0.3-0.2,0.4-0.3,1,0.4c0.4,0.5,0.8,1,1.4,1.3c0.6,0.3,0,1.5-1.2,2.2
						C455.1,157.2,453.7,153.8,455.2,152.5z"/>
					<circle fill="#0C022F" cx="458.9" cy="155.7" r="0.3"/>
					<circle fill="#0C022F" cx="460.6" cy="155.5" r="0.3"/>
					<path fill="#DFE9F8" d="M461.6,156.7l-0.3-0.6c-0.4-0.1-0.8-0.3-1.3-0.5c-0.2-0.3-0.3-0.6-0.3-0.9c0-0.3-0.3-0.5-0.5-0.5
						c0,0,0.3,0.3,0.3,0.4c0.1,0.2-0.2,0.9,0.3,1.2c0.4,0.3,0.2,0.9-0.2,0.9s-0.4,0-0.5-0.3c0,0-0.3,0.4-1,0.3c0,0-0.3,0-0.3-0.3
						c0-0.3-0.4-0.5-0.7-0.1s-0.5,0.9-0.8,1c0,0,0,0.2,0.3,0.2c-0.2,0.1-0.3,0.2-0.5,0.2c0,0,0.1,0.2,0.6,0.3c0,0,0,0.5-0.3,0.7
						c-0.1,0.1-0.3,0.2-0.3,0.3l-1.2,0.7l0.3,0.3l-0.9,1.6h0.3l-0.3,0.5l0.3,0.1c0,0-0.2,0.6-0.2,0.7s0.5-0.2,0.5-0.1
						c0,0.1-0.3,1-0.3,1l0.6-0.1v0.6l0.9-0.5l0.4,0.8l0.5-0.3v0.7l0.5-0.2c0,0,0,0.5,0,0.6c0.3,0,0.6-0.1,0.8-0.2l-0.9,1.2
						c-0.1,0.5,0,1,0.2,1.4c0.2,0.3,0.1,0.8,0.4,1.1s1.2,0.4,1.6,0c0.6-0.6-0.3-0.9-0.4-1.5c-0.1-0.3,0.2-1.8,0.6-2.3
						c0.3-0.3,0.3-0.8,0.3-1.1c0-0.1,0.3,0.1,0.3,0.1l-0.1-1.3h0.3l-0.7-2h0.5l-0.3-0.3l-0.9-0.4l-0.3-0.3l-0.6-0.1l-0.5-0.7v-0.3
						l0.3-0.2l0.9,0.2l1.5-0.4l-0.1,0.4C461.4,157.5,461.6,157.2,461.6,156.7z"/>
					<path fill="#DFE9F8" d="M455.4,166.3c-0.1,0.7,0.7,0.8,0.5,1.7c-0.1,0.6-1.3,0.8-1.9,0.2c-0.3-0.3-0.3-0.6-0.2-0.9
						c0-0.3-0.1-0.4-0.2-0.6C453.4,166.4,455.4,166.3,455.4,166.3z"/>
					<path fill="#DFE9F8" d="M448.6,164.3c0,0-1.3,0.5-0.9,1.2c0.4,0.8,1.3,0.8,1.6,0.3c0.3-0.5,0.5-0.8,0.5-0.8
						c0-0.2-0.1-0.3-0.3-0.5C449.2,164.3,448.9,164.2,448.6,164.3z"/>
					<ellipse fill="#0C022F" cx="461.2" cy="156.4" rx="0.7" ry="0.4"/>
					<path fill="none" stroke="#0C022F" stroke-width="0.6554" stroke-linecap="round" stroke-miterlimit="10" d="M460.9,157.7
						c0,0,0.4-0.1,0.3-0.3c-0.2-0.2-0.8,0.3-1.3,0.4c-0.5,0.1-0.8-0.2-1.1-0.2c-0.3,0-0.8,0.2-0.1,1.1c0.2,0.2,0.3,0.3,0.5,0.3
						c0.3,0,0.3,0.1,0.3,0.2c0.3,0.1,0.5,0.2,0.7,0.3"/>
					<path fill="#D36A83" d="M461,160.3c0.3-0.1,0.4-0.3,0.3-0.7c-0.2-0.8-0.5-1.4-0.9-2c-0.3,0.2-0.6,0.3-0.9,0.3
						c0.3,0.3,0.4,0.6,0.5,1C460.1,159.4,460,160.4,461,160.3z"/>
				</g>
			</g>
			<g>
				<path fill="#5B3427" d="M295.8,148.6l-0.3,0.9c0,0,0.3,0,0.5-0.3l0.2-0.3l0.5-0.4l-0.5,0.7c0,0-0.1,0.9,0.3,0.8l0.5-0.2
					c0.1,0,0.2-0.1,0.2-0.2c0-0.1,0-0.3,0-0.3l0.3-0.5c0.4,0.2,1.3-1.4,1.3-1.4l-0.9-0.7l-1.3,1.1l-0.2,0.3L295.8,148.6z"/>
				<path fill="#724C3B" d="M297.6,146.7c0,0-0.8,0.5-0.9,0.8c-0.1,0.2-0.2,0.8-0.2,0.8l0.1,0.8c0.3-0.2,0.3-0.4,0.3-0.8l0.3-0.4
					c0,0,0.9,0.3,1.3-0.4L297.6,146.7z"/>
				<path fill="#724C3B" d="M303.8,134.7c0.4,3.7-0.3,8.8-5.2,12.7l-1-0.8c0,0,4.9-4.6,3.7-11.2c-0.1-0.7,0.3-2.3,0.9-2.6
					C302.2,133,303.5,132.1,303.8,134.7z"/>
				<path fill="#724C3B" d="M303.6,161.7l3.1,9.4c0,0-0.6,2.1-3.3,3.3c0.7,0,1.3-0.1,1.9-0.3c0.7-0.3,2.3-1.5,2.3-1.5l-0.1,1.3h0.3
					l0.5-1.7c0,0,0.1-1-0.5-1.4c0,0-1.1-8.4-1.2-9.5C306.6,161.3,303.6,161.7,303.6,161.7z"/>
				<path fill="#724C3B" d="M307.9,160.4l2.4,11.7c0,0,0.3,3.2,3.1,3.4c0,0-1.5-2-1.8-3.3c-0.2-0.9-0.8-11-0.8-11.8
					C310.9,160.4,307.9,160.4,307.9,160.4z"/>
				<path fill="#0C022F" d="M304.7,173.3c0,0,1.6-0.2,2.1-0.8c0.8-1,0.3-0.9,1.1-1.8c0,0,0.7,0.3,0.5,1.4c-0.1,0.4-0.5,1.7-0.5,1.7
					c-0.1,0.1-4.4,0.7-4.4,0.5C303.3,173.8,304.7,173.3,304.7,173.3z"/>
				<path fill="#0C022F" d="M313.1,175.4c-0.2,0.1-1.3-0.5-2.1-1.4c-0.6-0.8-0.4-1-0.8-2.1c0,0-0.3-0.1-0.6,1
					c-0.1,0.4,0.3,1.8,0.3,1.8c0,0.1,3.9,2.3,4.1,2.2c0.3-0.3-0.5-1.6-0.9-1.9C313,174.9,313.2,175.3,313.1,175.4z"/>
				
					<linearGradient id="SVGID_14_" gradientUnits="userSpaceOnUse" x1="139.9358" y1="874.5515" x2="144.1457" y2="913.3814" gradientTransform="matrix(0.3569 0 0 -0.3569 257.213 482.4338)">
					<stop  offset="0" style="stop-color:#150773"/>
					<stop  offset="3.000000e-002" style="stop-color:#2E2384"/>
					<stop  offset="7.000000e-002" style="stop-color:#534C9C"/>
					<stop  offset="0.12" style="stop-color:#7572B2"/>
					<stop  offset="0.18" style="stop-color:#9292C5"/>
					<stop  offset="0.24" style="stop-color:#AAAED5"/>
					<stop  offset="0.3" style="stop-color:#BEC4E2"/>
					<stop  offset="0.38" style="stop-color:#CDD4EC"/>
					<stop  offset="0.48" style="stop-color:#D7E0F3"/>
					<stop  offset="0.62" style="stop-color:#DDE7F7"/>
					<stop  offset="1" style="stop-color:#DFE9F8"/>
				</linearGradient>
				<path fill="url(#SVGID_14_)" d="M315.2,166.5c-0.1-1.2,0.1-3.4-0.2-4.6c-0.3-0.8-1.3-2.3-1.6-3c-0.9-2-2-8.5-2-8.5
					c-0.3-1.6-0.7-3.2-1.3-4.7c0,0-1.4,1.7-4.9,0.1c-1.5-0.7-2.6-1.9-2.9-3.5c-0.7,1.2-0.9,7-0.9,7s0.3,5.9-0.5,10.3
					c-0.3,1.3,0.4,1.7,0.3,2.7c-0.3,1,0.8,2.3,2.3,3.2c1.8,1,3.6,1.1,4.1,0.1c0.2-0.3,0.2-0.6,0.1-0.9l-0.2-2.8l0.8,4.3
					c0,0,0,0.1,0.1,0.3c0.3,0.9,1.1,1.9,2.4,2.7c1.8,1.1,3.8,1.2,4.4,0.1C315.6,168.8,315.3,167.8,315.2,166.5z"/>
				<path fill="#DFE9F8" d="M307.6,161.9l-1.8-10.9l-0.5-0.4l1.3,10.6c0.1,0.6,0.1,1.1,0.1,1.7l-0.1,3.2c0.5-0.1,0.9-0.5,1-0.9
					C307.8,165.1,307.6,161.9,307.6,161.9z"/>
				<path fill="#0C022F" d="M310.2,144.1L310,144c-0.5-1.2-1.4-2.1-2.5-2.7c-0.9-0.5-1.9-0.8-3-0.9l0,0c-1,0-1.7,0.3-2,0.9
					c0,0,0,0,0,0.1l-0.2-0.1v0.8c0,0.5,0.2,1,0.4,1.4c1.2,1.8,3.2,2.9,5.4,3.1l0,0c1,0,1.7-0.3,2-0.9c0.2-0.3,0.2-0.5,0.2-0.8l0,0
					L310.2,144.1L310.2,144.1z"/>
				<path fill="#DFE9F8" d="M312.7,138.2c-0.1-0.3-0.3-0.6-0.5-0.8l-7.1-4.1c-0.7-0.3-1.3-0.5-2-0.6c-0.8,0-1.3,0.3-1.4,0.9
					c-0.3,0.7-0.3,1.3-0.3,2.1l0.3,5.1c0.1,0.7,0.5,1.3,1,1.8c0.5,1.1,1.3,1.9,2.4,2.5c1.2,0.6,2.4,0.9,3.7,0.8
					c0.8,0,1.8-0.3,2.2-0.8c0,0,0.6-0.4,0.5-1.9c0-1,0.8-1.3,1.3-2.9C312.7,139.5,312.7,138.8,312.7,138.2z"/>
				<path fill="#724C3B" d="M321.8,137.6l-0.4,0.8l0.3-0.9c0.2-0.3,0.3-0.5,0.2-0.8l-0.4,0.6l-0.3,0.8l0.2-0.8
					c0.3-0.2,0.3-0.4,0.3-0.8L321,137l-0.3,0.8l0.3-1c0.2-0.2,0.2-0.4,0.1-0.6l-0.3,0.6c0,0-0.3,1.2-0.3,1.3c0,0.1-0.1,0.4-0.2,0.8
					l-0.3-0.3c0,0,0-0.6-0.3-0.7v0.8c0,0,0,0.9,0.4,1l0,0l0,0l0,0c0,0-4.4,9.4-7.3-0.6c0,0-0.3-1.3-1-1.4c-0.4-0.1-0.9,0.1-1.2,0.4
					c-0.3,0.5-0.3,1,0,1.5c0,0,5,13.6,10.5,0.6l0,0c0.3-0.6,0.5-1.3,0.7-1.9l0.3-0.6c0.2-0.1,0.3-0.3,0.3-0.5L321.8,137.6z"/>
				<path fill="#5B3427" d="M307.7,134.7c0-0.8,0-2.5,0-2.5h-1.8v1.9c-0.2,0-0.3,0-0.5,0c-0.3,0-0.5,0.2-0.8,0.4
					c-0.3,0.6,0.3,1.6,1.3,2.2c1,0.6,2.2,0.6,2.5,0c0.3-0.4,0-1-0.4-1.4C307.9,135.1,307.8,134.9,307.7,134.7z"/>
				<path fill="#724C3B" d="M306,133.5v-2.1l1.8,1.2v1.7C307.1,134.2,306.4,134.3,306,133.5z"/>
				<path fill="#724C3B" d="M307.1,133.8L307.1,133.8c0.8,0.2,1.5,0,1.8-1.3l0.3-1.5c0.3-0.9-0.3-1.8-1.3-2l0,0
					c-0.9-0.2-1.8,0.5-1.9,1.4l-0.3,1.2C305.4,132.6,306,133.6,307.1,133.8L307.1,133.8z"/>
				<circle fill="#724C3B" cx="305.5" cy="131.6" r="0.6"/>
				<g>
					<path fill="#0C022F" d="M306.4,128.7c-0.2-0.2-0.4-0.3-0.7-0.3c0.3-0.2,0.5-0.3,0.8-0.3C306.5,128.3,306.4,128.5,306.4,128.7
						C306.3,128.6,306.4,128.6,306.4,128.7z"/>
					<path fill="#0C022F" d="M305.7,128.5c0.3,0,0.5,0.1,0.7,0.3c0,0,0-0.1,0-0.2c0-0.2,0-0.3,0.1-0.5c0.3-0.1,0.5-0.2,0.8-0.2
						c1.4,0,2.4,1.2,2.6,2.6c0,0.3,0,0.7-0.6,0.8c-0.8,0.1-1.8-0.8-2.3-1.3c-0.2,0.7-1.2,0.5-1.2,1.4c0,0.3-0.7,0.1-0.8-0.6
						C304.7,129.5,305,129,305.7,128.5z"/>
				</g>
				<path fill="#0C022F" d="M305.5,128.9c0,0-0.5-0.1-0.3-0.9c0.3-0.8,0.6-1.7,0.6-1.7c0.2-0.3,0.5-0.4,0.8-0.3
					c0.6,0.1,0.4,0.8,0.4,0.8l-0.5,1.6c0,0.4-0.4,0.8-0.8,0.7C305.5,129,305.5,129,305.5,128.9z"/>
				<polygon fill="#5333ED" points="305.5,126.8 306.9,126.9 306.7,127.5 305.6,127.2 306.6,127.7 306.5,128.2 305.2,127.6 				"/>
			</g>
			<g>
				<polygon fill="#2CD4D9" points="397.9,205.5 397.6,204.4 397.9,203.3 399.4,203.6 399.1,204.3 402,205.9 				"/>
				<polygon fill="#0C022F" points="403.3,206.5 398.9,206.1 398.9,206.2 397.3,206.1 397.3,206 397.3,205.7 403.4,206.2 				"/>
				<path fill="#150773" d="M397.3,205.7c0-0.4,0.2-0.8,0.3-1.3l1.2,0.3c0-0.2,0.2-0.3,0.3-0.4c0,0,1.6,0.8,4.1,1.7
					c0.1,0,0.1,0.3,0.1,0.3L397.3,205.7z"/>
				<polygon fill="#2CD4D9" points="393.6,206.4 394.4,205.7 394.4,204.9 395.8,204.8 395.8,207 397.5,212.1 397.4,212.2 				"/>
				<polygon fill="#0C022F" points="397.2,212.4 394.2,207.8 394.1,207.9 393.3,206.5 393.4,206.5 393.6,206.4 397.4,212.2 				"/>
				<path fill="#150773" d="M393.6,206.4c0.3-0.3,0.5-0.5,0.8-0.7l1,1.3c0.2-0.1,0.3-0.1,0.5,0c0,0,0.8,2.4,1.7,5.1
					c0,0.1-0.2,0.3-0.2,0.3L393.6,206.4z"/>
				<path fill="#DFE9F8" d="M395.4,169.2c0,0,0.2,10.5,4.1,11.6c0.1,0.3,0,0.8-0.3,1c-0.5,0.6-1,0.4-1,0.4s-4.5-1.3-4.9-9.2
					L395.4,169.2z"/>
				<path fill="#120667" d="M392.3,177.6l-6.3,2.9l0,0c-0.5,1.4-0.8,2.9-0.8,4.5c0,5.5,3.9,5.6,9.7,7.4c0.3,0.1,1.5,0.4,1.5,0.4
					c-0.8,2.9-2.1,12.6-2.1,12.6h1.4c0,0,4.3-13.8,3.5-14.1l-8.5-5.6l10,4.9c0,0-1.3,0.8-3.2,12.9l1.8,0.3l4.1-14.3
					c0.5-1.4-9.8-5.2-10.1-6.9L392.3,177.6z"/>
				<path fill="#EBA87C" d="M399.8,180.9c0,0,0-0.9-0.2-1.2c-0.1-0.2-0.5-0.5-0.5-0.5l-0.6-0.3c0,0.3,0.2,0.5,0.4,0.6l0.1,0.5
					c-0.4,0.3-0.6,0.8-0.3,1.3L399.8,180.9z"/>
				
					<rect x="397.6" y="203.4" transform="matrix(-0.9951 -9.880006e-002 9.880006e-002 -0.9951 775.1515 445.6)" fill="#DFE9F8" width="2" height="0.5"/>
				
					<rect x="394.3" y="205" transform="matrix(-0.9951 9.897040e-002 -9.897040e-002 -0.9951 808.5867 370.4521)" fill="#DFE9F8" width="1.7" height="0.5"/>
				<path fill="#DFE9F8" d="M392.6,166.5c-0.4,0.1-0.9,0.2-1.3,0.3c-1.5,0.6-3.8,1.8-5.1,2.4c-1,0.5-1.8,1.1-2.6,1.9l0,0l-0.1,0.1
					v0.1c-1.2,1.6-10.7,15.1,4.9,12.7l0.1-1.9c0,0-10.2,1.9-4.1-5.7l0.8,1.4c0.3,0.4,0.2,0.6,0.2,1.1c0,0.3-0.3,1.3,0.4,1.3h0.1
					l6.5-3.8l0,0c0.6,0,0.4-0.7,0.4-0.9c0.3-1.4,2.6-5,2.6-5c0.5-1.5-0.3-3.2-1.8-3.8C393.3,166.6,392.9,166.5,392.6,166.5z"/>
				<path fill="#FFC398" d="M392.1,182.5l0.9,0.6c0,0-0.3,0.3-0.7,0l-0.3-0.3l-0.7-0.1l0.8,0.3c0,0,0.7,0.8,0.3,0.9l-0.6,0.2
					c-0.1,0-0.2,0-0.3,0c-0.1-0.1-0.2-0.2-0.3-0.3l-0.6-0.2c-0.3,0.4-2-0.5-2-0.5l0.2-1.3l2.1,0.3h0.3L392.1,182.5z"/>
				<g>
					<polygon fill="#43414E" points="388.3,186.3 391.9,187.1 397.9,183.8 394.5,182.9 					"/>
					
						<linearGradient id="SVGID_15_" gradientUnits="userSpaceOnUse" x1="1242.0118" y1="3681.2139" x2="1245.4218" y2="3679.6038" gradientTransform="matrix(0.3109 -0.1753 -0.1753 -0.3109 650.4464 1547.2808)">
						<stop  offset="0" style="stop-color:#6E7075"/>
						<stop  offset="1" style="stop-color:#43414E"/>
					</linearGradient>
					<polygon fill="url(#SVGID_15_)" points="390.7,185.2 392,185.5 392.1,185.5 392.2,184.4 					"/>
					<polygon fill="#6E7075" points="391.5,186.8 391.8,186.9 392.3,186.6 391.9,186.5 					"/>
					<polygon fill="#6E7075" points="391,186.7 391.4,186.8 391.7,186.5 391.4,186.5 					"/>
					<polygon fill="#6E7075" points="390.6,186.5 391,186.6 391.3,186.5 391,186.3 					"/>
					<polygon fill="#6E7075" points="391.5,186.4 391.9,186.5 392.3,186.3 391.9,186.2 					"/>
					<polygon fill="#6E7075" points="391.1,186.3 391.5,186.4 391.8,186.1 391.5,186 					"/>
					<polygon fill="#6E7075" points="391.6,186 391.9,186 392.3,185.9 392,185.8 					"/>
					<g>
						<polygon fill="#6E7075" points="391.9,187.1 392.4,181.7 398.4,178.2 397.9,183.8 						"/>
						<path fill="#FFFFFF" d="M395.5,182.9c-0.2,0.1-0.3,0-0.3-0.3s0.2-0.4,0.3-0.5c-0.1-0.1-0.2-0.1-0.3,0
							c-0.3,0.2-0.4,0.5-0.5,0.8c0,0.3,0.2,0.4,0.3,0.3C395.3,183.2,395.4,183.1,395.5,182.9z"/>
					</g>
				</g>
				<polygon fill="#DFE9F8" points="387.9,182.3 388.1,184.1 387.8,184.1 387.7,182.3 				"/>
				<polygon fill="#DFE9F8" points="389,182 389.2,183.8 388.1,184.2 387.9,182.2 				"/>
				<circle fill="#5333ED" cx="388.5" cy="183.7" r="0.2"/>
				<path fill="#DFE9F8" d="M384.4,176.5c0,0,1.3-1.6,1.7-2.5l0.1,0.7c-0.5,0.8-1,1.6-1.6,2.3L384.4,176.5z"/>
				<path fill="#FFC398" d="M398.3,179.3h-0.9c0,0,0.1,0.3,0.5,0.3h0.3l0.5,0.3l-0.8-0.2c0,0-0.8,0.3-0.7,0.5l0.3,0.4
					c0,0,0.2,0.1,0.3,0.1s0.3,0,0.3-0.1l0.5,0.2c-1,1,0.1,1,0.1,1c0.7-0.2,1.1-0.8,0.9-1.5c0-0.3-0.5-0.7-0.5-0.7l-0.3-0.2
					L398.3,179.3z"/>
				<path fill="#5333ED" d="M386.1,180.8c0.6,1,2.3,1,4,0c1.7-1,2.6-2.5,2-3.5l-6.2,3.2C386.1,180.7,386.1,180.8,386.1,180.8z"/>
				<polygon fill="#120667" points="387.6,180.5 387,180.8 387,181.8 387.6,181.8 				"/>
				<polygon fill="#120667" points="392.2,178.2 391.7,178.4 391.7,180.2 392.2,180.2 				"/>
				<polygon fill="#120667" points="391.2,178.4 389.9,179.1 389.9,181.2 391.2,181.2 				"/>
				
					<ellipse transform="matrix(0.5 0.866 -0.866 0.5 348.6578 -248.0248)" fill="#DFE9F8" cx="389.1" cy="177.9" rx="2.4" ry="4.2"/>
				<path fill="#EBA87C" d="M390.2,168.2v-2.5h-2.5v2.5c0,0.6-0.5,1.8-1.1,1.8l2.3,2.5l2.3-2.5C390.7,170,390.2,168.8,390.2,168.2z"
					/>
				<path opacity="0.5" fill="#FFC398" enable-background="new    " d="M387.7,166.9v-0.8l2.4,0.1v0.6c-0.6,0.5-1.4,0.5-2.2,0.3
					C388,167,387.8,166.9,387.7,166.9z"/>
				<path fill="#FFC398" d="M389.7,161.5c1.1,0.1,1.8,1.1,1.7,2.2l-0.1,0.8l0,0c0.3,0.1,0.5,0.5,0.4,0.8c-0.1,0.3-0.4,0.5-0.8,0.4
					c-0.4,0.8-1.3,1.3-2.2,1.2c-1-0.1-1.7-0.5-1.5-1.9l0.3-1.7C387.6,162.1,388.6,161.3,389.7,161.5z"/>
				<path fill="#5333ED" d="M389.7,161.5c1.1,0.1,1.8,1.1,1.7,2.2l-0.1,0.4v0.3l-0.3,0.5l-0.4-0.3l0.3-0.5c-0.6-0.2-0.3-0.8-0.3-0.8
					c0.2-0.3,0.2-0.5,0-0.8c-0.3-0.4-0.8-0.5-1.1-0.3c-0.1,0-0.1,0.1-0.2,0.2c-0.2,0.3-0.3,0.3-0.6,0.3c-0.4,0-0.7-0.3-0.7-0.7l0,0
					V162C388.5,161.6,389.1,161.4,389.7,161.5z"/>
				<path fill="#DFE9F8" d="M390.2,166.8c0,0.6-0.1,1.2-0.4,1.6c0,0-1.8,0-2-0.4c0-0.1,0-0.2,0-0.3l0,0l-0.6,0.9l-0.8,1.3l2.6,2.7
					l3.2-3.4L390.2,166.8z"/>
				<path fill="#2CD4D9" d="M389.7,169.5l0.3-0.7l0.7,0.2c0,0,0.5,0.6-0.1,0.9C390,170.2,389.7,169.5,389.7,169.5z"/>
				
					<linearGradient id="SVGID_16_" gradientUnits="userSpaceOnUse" x1="371.9377" y1="859.0845" x2="371.7077" y2="873.3845" gradientTransform="matrix(0.3569 0 0 -0.3569 257.213 482.4338)">
					<stop  offset="0" style="stop-color:#5333ED"/>
					<stop  offset="1" style="stop-color:#2CD4D9"/>
				</linearGradient>
				<path fill="url(#SVGID_16_)" d="M390,169.5c0,0,0,2.7-0.7,4c-0.7,1.3-0.3,2.4,0.8,2.5l0.3-0.7c-0.3,0-0.5-0.2-0.5-0.4
					c-0.1-0.6,0.4-1.4,0.5-1.8c0.2-0.5,0.4-1.3,0.5-3.7H390z"/>
			</g>
			<path fill="none" stroke="#2CD4D9" stroke-width="2.1139" stroke-miterlimit="10" d="M429.9,136.7l-57.4-33.1l-78.2,12.1
				l-21,45.2l57.3,33.1l78.2-12.1L429.9,136.7z"/>
			
				<linearGradient id="SVGID_17_" gradientUnits="userSpaceOnUse" x1="87.0134" y1="946.3531" x2="136.4896" y2="946.3531" gradientTransform="matrix(0.3569 0 0 -0.3569 257.213 482.4338)">
				<stop  offset="0" style="stop-color:#150773"/>
				<stop  offset="0.5" style="stop-color:#5333ED"/>
				<stop  offset="1" style="stop-color:#2CD4D9"/>
			</linearGradient>
			<polygon fill="none" stroke="url(#SVGID_17_)" stroke-width="2.1139" stroke-miterlimit="10" points="288.7,131.4 305.6,141.1 
				305.6,157.9 288.7,148.2 			"/>
			
				<linearGradient id="SVGID_18_" gradientUnits="userSpaceOnUse" x1="256.6383" y1="1153.856" x2="568.4789" y2="1153.856" gradientTransform="matrix(0.3569 0 0 -0.3569 257.213 482.4338)">
				<stop  offset="0" style="stop-color:#FFFFFF;stop-opacity:0.3"/>
				<stop  offset="0.33" style="stop-color:#FFFFFF;stop-opacity:0.22"/>
				<stop  offset="1" style="stop-color:#FFFFFF;stop-opacity:0"/>
			</linearGradient>
			<polygon fill="url(#SVGID_18_)" points="460.1,49 348.8,113.1 348.8,92.3 460.1,28 			"/>
			<g>
				<polygon fill="#F2F6FC" points="352.8,92.8 352.8,110.8 370.7,100.5 370.7,82.5 				"/>
				<polygon fill="#FFFFFF" points="370.7,82.5 370.7,79.7 352.8,90 352.8,92.8 				"/>
				<polygon fill="#120667" points="352.8,90 348.8,92.3 348.8,95.1 352.8,92.8 				"/>
				<g>
					<polygon fill="#2CD4D9" points="352.8,92.8 348.8,95.1 348.8,96.9 352.8,94.6 					"/>
					<polygon fill="#120667" points="348.8,96.9 348.8,113.1 352.8,110.8 352.8,94.6 					"/>
				</g>
				<polygon fill="#2CD4D9" points="352.1,91.7 349.7,93.1 349.7,93.6 352.1,92.2 				"/>
			</g>
			<g opacity="0.2">
				<polygon fill="#DFE9F8" points="404.7,62.8 404.7,80.8 422.5,70.6 422.5,52.6 				"/>
				<polygon fill="#FFFFFF" points="422.5,52.6 422.5,49.7 404.7,60 404.7,62.8 				"/>
				<polygon fill="#120667" points="404.7,60 400.7,62.3 400.7,65.3 404.7,62.8 				"/>
				<g>
					<polygon fill="#2CD4D9" points="404.7,62.8 400.7,65.3 400.7,66.9 404.7,64.6 					"/>
					<polygon fill="#120667" points="400.7,66.9 400.7,83.3 404.7,80.8 404.7,64.6 					"/>
				</g>
				<polygon fill="#2CD4D9" points="403.9,61.8 401.5,63.2 401.5,63.7 403.9,62.3 				"/>
			</g>
			<g>
				<path fill="#B7835F" d="M374.3,115.1l2.3,13.9c0,0-0.6,2.2-3.4,3.4c0.7,0,1.3-0.1,1.9-0.3c0.7-0.3,2.4-1.6,2.4-1.6l-0.1,1.3h0.3
					l0.5-1.7c0,0,0.1-1-0.5-1.4c0,0-0.4-11-0.5-12.1C377.4,116.7,374.3,115.1,374.3,115.1z"/>
				<path fill="#B7835F" d="M377.9,118l0.8,12.1c0,0,0.2,2.2,1.3,3.8c0,0,0.5-2.2,0.1-3.4c-0.1-0.4-0.2-0.8-0.1-1.3
					c0.3-2.7,1-10.2,1-11.2C381.1,118,377.9,118,377.9,118z"/>
				<path fill="#0C022F" d="M378.9,131c0,0,0.5,2.7,1.3,3.7c0,0,0.5-1.3,0-4c0,0-0.1,2.1-0.3,2.5L378.9,131z"/>
				<path fill="#0C022F" d="M374.3,131.8c0,0,1.6-0.1,2.4-1.3c0.8-1.1,0.3-1,1.1-1.8c0,0,0.6,0.3,0.5,1.4l-0.5,1.7
					c-0.1,0.1-0.3,0.1-0.3,0l0.1-1.3c0,0-1.8,1.5-2.4,1.6c-0.7,0.1-2.2,0.4-1.9,0.2L374.3,131.8z"/>
				<path opacity="0.5" fill="#EBA87C" enable-background="new    " d="M374.7,117.1c0,0,0.8,1.4,2.8,1.8v-0.8l0.5,0.3v0.8
					c0.9,0.5,2,0.5,2.9,0l0.1-1.2l-6.7-2.6L374.7,117.1z"/>
				<circle fill="#5333ED" cx="383.5" cy="95.6" r="1"/>
				<path fill="#120667" d="M381.5,117.7L381.5,117.7c0.3-1.3,2.9-10.5,0-14.2l-7.4-2.7c-3,4.3,0,14.3,0,14.3l0,0
					c0.2,1,1.1,2.2,2.5,3c1.9,1.2,4.1,1.2,4.8,0C381.5,118.1,381.5,117.9,381.5,117.7L381.5,117.7L381.5,117.7z"/>
				<path fill="#0C022F" d="M382.3,102.3l-0.3-0.1c-0.5-1.2-1.4-2.2-2.6-2.8c-0.9-0.6-2-0.9-3.1-0.9l0,0c-1,0-1.8,0.3-2.1,1
					c0,0,0,0,0,0.1l-0.3-0.1v0.8c0,0.5,0.2,1.1,0.4,1.5c1.3,1.8,3.3,3,5.4,3.2l0,0c1,0,1.8-0.3,2.1-1c0.2-0.3,0.3-0.5,0.3-0.8l0,0
					L382.3,102.3z"/>
				<path fill="#5333ED" d="M375.8,90L375.8,90c0,0,0.7-0.1,0.8-1c0,0,0-0.1,0-0.2c0.2-1.4,1.4-2.5,2.9-2.4c1.3,0.2,2.4,1.3,2.4,2.6
					c0,0-0.2,1.7,0.9,2.3c0.5,0.3,0.8,0.8,0.8,1.4c0.7,0.2,1.2,0.8,1.2,1.5c-0.1,0.8-0.8,1.4-1.6,1.3c-0.3,0-0.6-0.2-0.8-0.3
					c-0.3,0.2-0.8,0.3-1.2,0.3c-0.9-0.1-1.7-0.7-2-1.4l-1.3-1.6c-0.4,0.9-1.5,1.3-2.4,1c-0.9-0.4-1.3-1.5-1-2.4
					C374.8,90.5,375.3,90.1,375.8,90L375.8,90z"/>
				
					<linearGradient id="SVGID_19_" gradientUnits="userSpaceOnUse" x1="340.1239" y1="1090.7385" x2="332.7239" y2="1095.1686" gradientTransform="matrix(0.3569 0 0 -0.3569 257.213 482.4338)">
					<stop  offset="0" style="stop-color:#150773"/>
					<stop  offset="1" style="stop-color:#5333ED"/>
				</linearGradient>
				<path fill="url(#SVGID_19_)" d="M377.3,89.5l-0.5,0.1c0,0,0.1,1.3-0.3,1.7c-0.3,0.4-0.8,0.5-1,1.4c-0.4,0.1-0.8,0.5-0.9,0.9h4.4
					l0.1-2.7L377.3,89.5z"/>
				
					<linearGradient id="SVGID_20_" gradientUnits="userSpaceOnUse" x1="344.3717" y1="1086.4443" x2="347.7517" y2="1090.1545" gradientTransform="matrix(0.3569 0 0 -0.3569 257.213 482.4338)">
					<stop  offset="0" style="stop-color:#150773"/>
					<stop  offset="1" style="stop-color:#5333ED"/>
				</linearGradient>
				<path fill="url(#SVGID_20_)" d="M380.8,91c0,0-0.3,1.5,0.8,1.9c0.9,0.3,0.8,1.7,1.3,2.8c0.3,0.8-3.1-0.5-3.1-0.5l0.1-4.4
					L380.8,91z"/>
				<path fill="#EBA87C" d="M364.2,93.8l-0.7-0.8c-0.1,0.2-0.1,0.3,0,0.5l0.3,0.5l0.3,0.6l-0.8,0.7c-0.3,0.3,0.9,1.8,0.9,1.8l1-0.7
					l-0.7-1.6l-0.2-0.3L364.2,93.8z"/>
				<path fill="#B7835F" d="M365.3,96.4c0,0-0.3-1-0.5-1.2c-0.3-0.1-0.5-0.2-0.8-0.2l-0.5,0.5c0.3,0.1,0.5,0,0.6-0.2l0.3,0.2
					c0,0-0.8,0.8-0.1,1.5L365.3,96.4z"/>
				<path fill="#DFE9F8" d="M376.3,93c0,0-4.1,18.1-12.4,4.4l1.3-1.3c0,0,4.9,9.3,7-2.6L376.3,93z"/>
				
					<linearGradient id="SVGID_21_" gradientUnits="userSpaceOnUse" x1="341.5697" y1="1087.5752" x2="340.8896" y2="1058.5951" gradientTransform="matrix(0.3569 0 0 -0.3569 257.213 482.4338)">
					<stop  offset="0" style="stop-color:#5333ED"/>
					<stop  offset="1" style="stop-color:#2CD4D9"/>
				</linearGradient>
				<path fill="url(#SVGID_21_)" d="M385,97.5c-0.1-0.3-0.3-0.6-0.6-0.8l-7.4-4.3c-0.7-0.3-1.3-0.6-2.1-0.6c-0.8,0-1.3,0.3-1.5,0.9
					c-0.3,0.7-0.3,1.4-0.3,2.2l0.3,5.2c0.1,0.8,0.5,0.3,1,0.8c0.5,1.1,1.4,2,2.5,2.6c1.2,0.7,2.5,0.9,3.8,0.8c0.8,0,1.8,0.7,2.3,0.3
					c0,0,0.6-0.4,0.5-1.9c0-1,0.8-1.4,1.3-3.1C385.1,98.9,385.1,98.2,385,97.5z"/>
				<path fill="#DFE9F8" d="M383.5,95.9L383.5,95.9c0,0-4.9-2.8-6.3-3.6s-2.3-0.8-2.3-0.8c-1.5,0-2.8,1.3-2.8,2.8
					c0,0.3,0,0.6,0.2,0.9l0.8,7.4c0,0,0.5,1.3,0.9-0.1c0.4-1.3-0.2-4.4,0.1-6.5c0.1-1.1,0.6-2.2,1.5-2.8c0.8-0.5,1.8-0.2,1.8-0.2
					c1,0.4,1.9,0.9,2.8,1.4c1.1,0.8,1.8,1.9,1.3,2.6c-0.3,0.6-0.6,1.2-0.7,1.8c-0.3,2,0,4,0.6,5.9c0,2.3,2.8,2.1,2.8,2.1l0.8-7.4
					C385.7,98,385,96.4,383.5,95.9L383.5,95.9z"/>
				<path fill="#B7835F" d="M379.9,93.9c0-0.8,0-2.6,0-2.6h-1.9v1.9c-0.2,0-0.3,0-0.5,0c-0.3,0-1,0.1-1,0.1l0.7,4.4l3.8-2.2
					c-0.3-0.4-0.5-0.8-0.8-1.2C380,94.3,379.9,94.1,379.9,93.9z"/>
				<path opacity="0.5" fill="#EBA87C" enable-background="new    " d="M378,92.6v-2.2l1.8,1.2v0.9C379.6,92.8,378.4,93.4,378,92.6z
					"/>
				<path fill="#EBA87C" d="M378.6,92.4L378.6,92.4c-0.8,0-1.5-0.3-1.4-1.7v-1.6c0-1,0.8-1.8,1.7-1.8l0,0c1,0.1,1.7,0.9,1.6,1.9v1.3
					C380.5,91.5,379.7,92.4,378.6,92.4z"/>
				<circle fill="#EBA87C" cx="380.7" cy="90.5" r="0.6"/>
				<g>
					<path fill="#5333ED" d="M379.9,87.1c0.3-0.2,0.4-0.3,0.7-0.3c-0.3-0.2-0.5-0.3-0.8-0.3C379.8,86.7,379.9,86.9,379.9,87.1
						C379.9,87,379.9,87.1,379.9,87.1z"/>
					<path fill="#5333ED" d="M379.9,87.1c-0.8-0.5-3.2,0.4-3.2,1.9c0,0.1,0.1,0.5,0.1,0.6c0.8,0.1,2.1-0.6,2.5-1.2
						c0.2,0.7,0.8,1.4,1.4,1.4c0.3,0,0.7-0.1,0.9-0.3C381.6,89.4,380,87.3,379.9,87.1z"/>
				</g>
				<path fill="#EBA87C" d="M377.9,94.6c0,0,0.6,1.1,0.6,1.2s0.8,1.8,0.8,1.8l-0.8,0.7c-0.5-0.5-0.9-1.1-1.2-1.8l-0.4-0.5
					c-0.2-0.1-0.3-0.2-0.4-0.3l0.5,0.2l0.6,0.6l-0.5-0.8c-0.3-0.2-0.4-0.5-0.3-0.8l0.5,0.5l0.4,0.7l-0.3-0.8
					c-0.3-0.1-0.5-0.3-0.5-0.7l0.8,0.5l0.5,0.8l-0.5-0.9c0,0-0.3-0.3-0.3-0.6L377.9,94.6z"/>
				<path fill="#DFE9F8" d="M385.1,97.2c2.6,4.9-2.5,18-7.2,1.3l1.3-1.3c0,0,3.3,10,4.8,4C384,101.3,384.6,96.3,385.1,97.2z"/>
				<path fill="#DFE9F8" d="M383,100.2c0,0,0.3,4.1-2.2,0.7v0.3c0,0,1.3,2.2,2,1.4c0.8-0.8,0.5-1.9,0.5-1.9L383,100.2z"/>
				<polygon fill="#DFE9F8" points="372.9,100.7 372.6,97.7 372.4,97.9 372.6,101 				"/>
			</g>
			
				<linearGradient id="SVGID_22_" gradientUnits="userSpaceOnUse" x1="103.647" y1="1206.2024" x2="569.5358" y2="1206.2024" gradientTransform="matrix(0.3569 0 0 -0.3569 257.213 482.4338)">
				<stop  offset="0" style="stop-color:#2CD4D9;stop-opacity:0.3"/>
				<stop  offset="0.38" style="stop-color:#2CD4D9;stop-opacity:0.2"/>
				<stop  offset="1" style="stop-color:#2CD4D9;stop-opacity:0"/>
			</linearGradient>
			<polygon fill="none" stroke="url(#SVGID_22_)" stroke-width="2.1139" stroke-linecap="round" stroke-miterlimit="10" points="
				460.1,23.8 460.1,7.2 348.8,71.4 294.6,80.1 294.6,96.8 348.8,88.1 			"/>
		</g>
	</g>
</g>
</svg>
