<?xml version="1.0" encoding="utf-8"?>
<!-- Generator: Adobe Illustrator 18.1.1, SVG Export Plug-In . SVG Version: 6.00 Build 0)  -->
<svg version="1.1" id="Layer_1" xmlns="http://www.w3.org/2000/svg" xmlns:xlink="http://www.w3.org/1999/xlink" x="0px" y="0px"
	 viewBox="400 -246.5 1395.6 1333.4" enable-background="new 400 -246.5 1395.6 1333.4" xml:space="preserve">
<title>home-hero</title>
<g>
	<g id="_x30_2fd7753-756e-4208-a540-d2de42971ccc">
		
			<linearGradient id="SVGID_1_" gradientUnits="userSpaceOnUse" x1="311.5797" y1="704.8993" x2="1690.1798" y2="203.1293" gradientTransform="matrix(1 0 0 -1 0 838.9501)">
			<stop  offset="0" style="stop-color:#150773"/>
			<stop  offset="0.54" style="stop-color:#5333ED"/>
			<stop  offset="0.93" style="stop-color:#2CD4D9"/>
		</linearGradient>
		<polygon fill="url(#SVGID_1_)" points="400,-246.5 400,1086.9 1795.6,274.2 1795.6,-246.5 		"/>
		<g>
			
				<linearGradient id="SVGID_2_" gradientUnits="userSpaceOnUse" x1="1357.9399" y1="683.21" x2="1357.9401" y2="1046.5" gradientTransform="matrix(1 0 0 -1 0 838.9501)">
				<stop  offset="0" style="stop-color:#2CD4D9;stop-opacity:0.5"/>
				<stop  offset="0.24" style="stop-color:#2CD4D9;stop-opacity:0.4"/>
				<stop  offset="0.74" style="stop-color:#2CD4D9;stop-opacity:0.15"/>
				<stop  offset="1" style="stop-color:#2CD4D9;stop-opacity:0"/>
			</linearGradient>
			<polyline fill="none" stroke="url(#SVGID_2_)" stroke-width="2.1139" stroke-miterlimit="10" points="1360.9,155.7 1360.9,-15.1 
				1352.1,-23.9 1352.1,-106 1363.8,-117.7 1363.8,-207.5 			"/>
			
				<circle opacity="0.3" fill="none" stroke="#2CD4D9" stroke-width="2.1139" stroke-miterlimit="10" enable-background="new    " cx="1363.1" cy="-50.8" r="1.4"/>
			
				<circle opacity="0.3" fill="none" stroke="#2CD4D9" stroke-width="2.1139" stroke-miterlimit="10" enable-background="new    " cx="1363.1" cy="-57.9" r="1.4"/>
			
				<linearGradient id="SVGID_3_" gradientUnits="userSpaceOnUse" x1="1434.24" y1="692.23" x2="1434.24" y2="1060.15" gradientTransform="matrix(1 0 0 -1 0 838.9501)">
				<stop  offset="0" style="stop-color:#2CD4D9;stop-opacity:0.5"/>
				<stop  offset="0.24" style="stop-color:#2CD4D9;stop-opacity:0.4"/>
				<stop  offset="0.74" style="stop-color:#2CD4D9;stop-opacity:0.15"/>
				<stop  offset="1" style="stop-color:#2CD4D9;stop-opacity:0"/>
			</linearGradient>
			
				<line fill="none" stroke="url(#SVGID_3_)" stroke-width="2.1139" stroke-miterlimit="10" x1="1434.2" y1="146.7" x2="1434.2" y2="-221.2"/>
			
				<linearGradient id="SVGID_4_" gradientUnits="userSpaceOnUse" x1="1182.37" y1="1035.03" x2="1182.37" y2="568.6201" gradientTransform="matrix(1 0 0 -1 0 838.9501)">
				<stop  offset="0" style="stop-color:#2CD4D9;stop-opacity:0"/>
				<stop  offset="1" style="stop-color:#2CD4D9;stop-opacity:0.5"/>
			</linearGradient>
			<polyline fill="none" stroke="url(#SVGID_4_)" stroke-width="2.1139" stroke-miterlimit="10" points="1182.4,-196.1 
				1182.4,143.6 1182.4,270.3 			"/>
			
				<linearGradient id="SVGID_5_" gradientUnits="userSpaceOnUse" x1="1293.5499" y1="667.15" x2="1293.55" y2="906.8777" gradientTransform="matrix(1 0 0 -1 0 838.9501)">
				<stop  offset="0" style="stop-color:#2CD4D9;stop-opacity:0.5"/>
				<stop  offset="0.54" style="stop-color:#2CD4D9;stop-opacity:0.4"/>
				<stop  offset="1" style="stop-color:#2CD4D9;stop-opacity:0.3"/>
			</linearGradient>
			<polyline fill="none" stroke="url(#SVGID_5_)" stroke-width="2.1139" stroke-miterlimit="10" points="1301,171.8 1301,83.5 
				1286.1,68.6 1286.1,-54.4 1298.8,-67.2 			"/>
			
				<linearGradient id="SVGID_6_" gradientUnits="userSpaceOnUse" x1="1250.525" y1="663.4" x2="1250.525" y2="1045.4401" gradientTransform="matrix(1 0 0 -1 0 838.9501)">
				<stop  offset="0" style="stop-color:#2CD4D9;stop-opacity:0.8"/>
				<stop  offset="7.000000e-002" style="stop-color:#2CD4D9;stop-opacity:0.69"/>
				<stop  offset="0.23" style="stop-color:#2CD4D9;stop-opacity:0.48"/>
				<stop  offset="0.39" style="stop-color:#2CD4D9;stop-opacity:0.31"/>
				<stop  offset="0.55" style="stop-color:#2CD4D9;stop-opacity:0.17"/>
				<stop  offset="0.7" style="stop-color:#2CD4D9;stop-opacity:8.000000e-002"/>
				<stop  offset="0.85" style="stop-color:#2CD4D9;stop-opacity:2.000000e-002"/>
				<stop  offset="1" style="stop-color:#2CD4D9;stop-opacity:0"/>
			</linearGradient>
			<polyline fill="none" stroke="url(#SVGID_6_)" stroke-width="2.1139" stroke-miterlimit="10" points="1252.9,175.6 1252.9,91.3 
				1237.3,75.7 1237.3,-22.2 1263.8,-48.7 1263.8,-206.5 			"/>
			
				<linearGradient id="SVGID_7_" gradientUnits="userSpaceOnUse" x1="1299.34" y1="928.29" x2="1299.3401" y2="1006.89" gradientTransform="matrix(1 0 0 -1 0 838.9501)">
				<stop  offset="0" style="stop-color:#2CD4D9;stop-opacity:0.5"/>
				<stop  offset="0.24" style="stop-color:#2CD4D9;stop-opacity:0.4"/>
				<stop  offset="0.74" style="stop-color:#2CD4D9;stop-opacity:0.15"/>
				<stop  offset="1" style="stop-color:#2CD4D9;stop-opacity:0"/>
			</linearGradient>
			
				<line fill="none" stroke="url(#SVGID_7_)" stroke-width="2.1139" stroke-miterlimit="10" x1="1299.3" y1="-89.3" x2="1299.3" y2="-167.9"/>
			
				<circle opacity="0.3" fill="none" stroke="#2CD4D9" stroke-width="2.1139" stroke-miterlimit="10" enable-background="new    " cx="1299.3" cy="-73.1" r="1.4"/>
			
				<circle opacity="0.3" fill="none" stroke="#2CD4D9" stroke-width="2.1139" stroke-miterlimit="10" enable-background="new    " cx="1299.3" cy="-87.3" r="1.4"/>
			
				<linearGradient id="SVGID_8_" gradientUnits="userSpaceOnUse" x1="1220.5" y1="609.853" x2="1220.5" y2="934.307" gradientTransform="matrix(1 0 0 -1 0 838.9501)">
				<stop  offset="0" style="stop-color:#5333ED"/>
				<stop  offset="0.73" style="stop-color:#5333ED;stop-opacity:0.27"/>
				<stop  offset="1" style="stop-color:#5333ED;stop-opacity:0"/>
			</linearGradient>
			<polyline fill="none" stroke="url(#SVGID_8_)" stroke-width="2.1139" stroke-linecap="round" stroke-linejoin="round" points="
				1213,228 1213,70.7 1228,55.7 1228,-94.3 			"/>
			
				<linearGradient id="SVGID_9_" gradientUnits="userSpaceOnUse" x1="1179.26" y1="544.833" x2="1179.26" y2="1063.647" gradientTransform="matrix(1 0 0 -1 0 838.9501)">
				<stop  offset="0" style="stop-color:#5333ED"/>
				<stop  offset="0.17" style="stop-color:#5333ED;stop-opacity:0.85"/>
				<stop  offset="0.55" style="stop-color:#5333ED;stop-opacity:0.48"/>
				<stop  offset="1" style="stop-color:#5333ED;stop-opacity:0"/>
			</linearGradient>
			<polyline fill="none" stroke="url(#SVGID_9_)" stroke-width="2.1139" stroke-linecap="round" stroke-linejoin="round" points="
				1171.8,293.1 1171.8,191.3 1171.8,-54.5 1186.7,-69.4 1186.7,-223.6 			"/>
			
				<linearGradient id="SVGID_10_" gradientUnits="userSpaceOnUse" x1="1335.84" y1="674.2631" x2="1335.84" y2="1054.937" gradientTransform="matrix(1 0 0 -1 0 838.9501)">
				<stop  offset="0" style="stop-color:#5333ED;stop-opacity:0.6"/>
				<stop  offset="0.14" style="stop-color:#5333ED;stop-opacity:0.58"/>
				<stop  offset="0.32" style="stop-color:#5333ED;stop-opacity:0.51"/>
				<stop  offset="0.51" style="stop-color:#5333ED;stop-opacity:0.4"/>
				<stop  offset="0.73" style="stop-color:#5333ED;stop-opacity:0.25"/>
				<stop  offset="0.95" style="stop-color:#5333ED;stop-opacity:5.000000e-002"/>
				<stop  offset="1" style="stop-color:#5333ED;stop-opacity:0"/>
			</linearGradient>
			<polyline fill="none" stroke="url(#SVGID_10_)" stroke-width="2.1139" stroke-linecap="round" stroke-linejoin="round" points="
				1328.4,163.6 1328.4,-143.4 1343.3,-158.3 1343.3,-214.9 			"/>
			
				<linearGradient id="SVGID_11_" gradientUnits="userSpaceOnUse" x1="1203.675" y1="1066.8943" x2="1203.675" y2="615.91" gradientTransform="matrix(1 0 0 -1 0 838.9501)">
				<stop  offset="0" style="stop-color:#2CD4D9;stop-opacity:0"/>
				<stop  offset="1" style="stop-color:#2CD4D9;stop-opacity:0.5"/>
			</linearGradient>
			<polyline fill="none" stroke="url(#SVGID_11_)" stroke-width="2.1139" stroke-miterlimit="10" points="1203.1,-227.9 1204.3,70 
				1204.3,223 			"/>
			<path fill="#2CD4D9" fill-opacity="0.2" d="M1604.3,260.5l-160.6-92.7l-219.3,33.9l-58.8,126.6l160.5,92.7l219.3-33.9
				L1604.3,260.5z"/>
			<path fill="#2CD4D9" fill-opacity="0.5" d="M1604.3,248.4l-160.6-92.7l-219.3,33.9l-58.8,126.6l160.5,92.7l219.3-33.9
				L1604.3,248.4z"/>
			
				<linearGradient id="SVGID_12_" gradientUnits="userSpaceOnUse" x1="1401.73" y1="566.26" x2="1065.85" y2="614.93" gradientTransform="matrix(1 0 0 -1 0 838.9501)">
				<stop  offset="0" style="stop-color:#2CD4D9"/>
				<stop  offset="0.16" style="stop-color:#2CD4D9;stop-opacity:0.8"/>
				<stop  offset="0.34" style="stop-color:#2CD4D9;stop-opacity:0.62"/>
				<stop  offset="0.52" style="stop-color:#2CD4D9;stop-opacity:0.48"/>
				<stop  offset="0.69" style="stop-color:#2CD4D9;stop-opacity:0.38"/>
				<stop  offset="0.85" style="stop-color:#2CD4D9;stop-opacity:0.32"/>
				<stop  offset="1" style="stop-color:#2CD4D9;stop-opacity:0.3"/>
			</linearGradient>
			<path fill="url(#SVGID_12_)" d="M1604.3,236.3l-160.6-92.7l-219.3,33.9l-58.8,126.7l160.5,92.7l219.3-33.9L1604.3,236.3z
				 M1323.1,306c-34.2-19.7-34.2-51.7,0-71.4s89.5-19.7,123.7,0s34.2,51.7,0,71.4S1357.3,325.7,1323.1,306z"/>
			
				<linearGradient id="SVGID_13_" gradientUnits="userSpaceOnUse" x1="1534.4584" y1="561.965" x2="1280.7885" y2="481.695" gradientTransform="matrix(1 0 0 -1 0 838.9501)">
				<stop  offset="0" style="stop-color:#5333ED"/>
				<stop  offset="5.000000e-002" style="stop-color:#5333ED;stop-opacity:0.91"/>
				<stop  offset="0.19" style="stop-color:#5333ED;stop-opacity:0.67"/>
				<stop  offset="0.34" style="stop-color:#5333ED;stop-opacity:0.46"/>
				<stop  offset="0.48" style="stop-color:#5333ED;stop-opacity:0.3"/>
				<stop  offset="0.62" style="stop-color:#5333ED;stop-opacity:0.17"/>
				<stop  offset="0.75" style="stop-color:#5333ED;stop-opacity:7.000000e-002"/>
				<stop  offset="0.88" style="stop-color:#5333ED;stop-opacity:2.000000e-002"/>
				<stop  offset="1" style="stop-color:#5333ED;stop-opacity:0"/>
			</linearGradient>
			<path fill="url(#SVGID_13_)" d="M1531.8,216.4c-34.7,0-62.8,16.2-62.8,36.3c0,2.2,0.4,4.5,1.1,6.6c0.2,0.5,0.4,1.1,0.6,1.6
				c5.2,15.8-2.8,32.8-24.1,45.1c-34.2,19.7-89.5,19.7-123.7,0c-11.2-6.5-18.7-14.3-22.6-22.5l-134.7,20.9l160.4,92.6l219.3-33.9
				l45.5-98.1c1.1-1.8,2-3.7,2.7-5.8c0.7-2.1,1-4.3,1-6.4C1594.6,232.6,1566.5,216.4,1531.8,216.4z"/>
			<path fill="#FFFFFF" fill-opacity="0.6" stroke="#FFFFFF" stroke-width="2.1139" stroke-miterlimit="10" d="M1323.1,287.5
				c-34.2-19.7-34.2-51.7,0-71.4s89.5-19.7,123.7,0s34.2,51.7,0,71.4S1357.3,307.3,1323.1,287.5z"/>
			<path fill="none" stroke="#FFFFFF" stroke-width="2.1139" stroke-miterlimit="10" stroke-opacity="0.5" d="M1323.1,280.8
				c-34.2-19.7-34.2-51.7,0-71.4s89.5-19.7,123.7,0s34.2,51.7,0,71.4S1357.3,300.5,1323.1,280.8z"/>
			<path fill="none" stroke="#FFFFFF" stroke-width="2.1139" stroke-miterlimit="10" stroke-opacity="0.2" d="M1323.1,273.6
				c-34.2-19.7-34.2-51.7,0-71.4s89.5-19.7,123.7,0s34.2,51.7,0,71.4S1357.3,293.3,1323.1,273.6z"/>
			<g>
				<polygon fill="#9E684D" points="1741.2,252.7 1740.1,251.4 1734.2,250.2 1734.1,246.2 1741.6,247 1743.4,247.9 				"/>
				<path fill="#150773" d="M1742.7,256.3l-4.4,5.3h-2c0,0-0.3-0.2-0.2-0.6s1.3-0.5,1.3-0.5l2-4.8l0.8-4.2c0,0,0-0.6,1.4-1l0.4-3.4
					c0,0,3-0.2,4.7,0.9L1742.7,256.3z"/>
				<path fill="#5333ED" d="M1746.5,247.9l-3.4,7.3c-0.4,0.8-0.8,1.5-1.4,2.2l-3.7,4.3h-1.9v0.6h2.4l3.9-4.7
					c0.6-0.7,1.1-1.4,1.4-2.3l3.2-7L1746.5,247.9z"/>
				
					<rect x="1740.6" y="250.3" transform="matrix(-0.2892 -0.9573 0.9573 -0.2892 2003.3837 1990.8303)" fill="#2CD4D9" width="0.5" height="2.6"/>
				
					<rect x="1740.1" y="252.1" transform="matrix(-0.2892 -0.9573 0.9573 -0.2892 2001.2977 1992.4053)" fill="#2CD4D9" width="0.5" height="2.3"/>
				
					<rect x="1739.5" y="253.9" transform="matrix(-0.2892 -0.9573 0.9573 -0.2892 1999.058 1993.9296)" fill="#2CD4D9" width="0.5" height="1.8"/>
				
					<rect x="1738.9" y="255.7" transform="matrix(-0.2892 -0.9573 0.9573 -0.2892 1996.7959 1995.3693)" fill="#2CD4D9" width="0.5" height="1.3"/>
				<path fill="#5333ED" d="M1716.9,218.6c1.2-0.5,2.1-1.6,2.3-2.9c0.7-4,16.1,2.9,16.1,2.9c1.1,0.4,1.9,1.3,2.2,2.4
					c0.5,3.4,2.8,6.2,3.1,10.3c1.1,16.9-33.5,10.7-33.5,10.7c3.6-0.3,11.5,0.1,18.7,1.2c3,0.5,5.6-0.2,7.7-0.2c3.8-0.1,4.1,3,4.1,3
					v5c0,0-1.6,2.7-5.8,0.8c-4.8-2.2-8.1,1.6-11.8,1.2c-4.6-0.5-8.1-4.3-12.3-5.2c-8.6-1.8-14.6-4.6-10.3-8.9l26.5-7.9
					c0,0-11.8,9.7-19.4,3.6c-2.6-2.1-4.3-8.3-8.2-11.1c0,0,3.3,2.2,4,4.1c1.2,3.6,0.3,4.4,0.7,7c0.3,2.1,3.7,3.9,4.6,7.6
					c0.9,3.4-0.5,9.6-0.5,9.6l-4.3,0.2c0,0-4-1.7-5.4-4.2c-1.2-2.1,0.3-4.6-1.2-7.6c-0.4-0.8-2.8-2.5-3.6-4.2
					c-1.6-3.4-0.6-5.3-1.5-8.6c-1.2-4.5-1.2-8.6,0.9-10.9c2-2.1,4.8-3.1,7.7-2.7c3.6,0.7,4,3,5.6,3.7c2.6,1.1,3.9,0,6.3,1.2
					c1.7,0.8,2.2,3.1,3.5,3.6c2,0.7,3.4,0,3-0.7C1714.2,218.4,1716.9,218.6,1716.9,218.6z"/>
				<polygon fill="#9E684D" points="1706.4,254.5 1704.9,251 1701.2,251.7 1703.7,256.4 				"/>
				
					<rect x="1691.5" y="260.3" transform="matrix(0.8651 -0.5017 0.5017 0.8651 98.7079 888.2695)" fill="#5333ED" width="18.1" height="0.7"/>
				<path fill="#150773" d="M1708.2,255.7c-0.5-1-1.3-1.9-2.2-2.6l-2.5,1.8c-0.2-0.4-0.7-0.6-1.2-0.5c0,0-4.8,4.7-9.7,9.8
					c-0.1,0.1,0.1,0.6,0.1,0.6L1708.2,255.7z"/>
				
					<rect x="1702.2" y="254.1" transform="matrix(0.2521 -0.9677 0.9677 0.2521 1026.1703 1838.5575)" fill="#2CD4D9" width="0.5" height="2.6"/>
				
					<rect x="1701" y="255.4" transform="matrix(0.2521 -0.9677 0.9677 0.2521 1024.2002 1838.2137)" fill="#2CD4D9" width="0.5" height="2.3"/>
				
					<rect x="1699.7" y="256.7" transform="matrix(0.2521 -0.9677 0.9677 0.2521 1022.192 1837.7601)" fill="#2CD4D9" width="0.5" height="1.8"/>
				
					<rect x="1699.6" y="262.3" transform="matrix(0.2496 -0.9684 0.9684 0.2496 1020.971 1843.3777)" fill="#2CD4D9" width="0.5" height="1.4"/>
				
					<rect x="1700.2" y="251" transform="matrix(0.9636 -0.2672 0.2672 0.9636 -5.3152 464.3059)" fill="#DFE9F8" width="5.8" height="1.3"/>
				
					<rect x="1734.9" y="248" transform="matrix(0.1343 -0.9909 0.9909 0.1343 1257.9948 1937.3468)" fill="#DFE9F8" width="5.8" height="1.3"/>
				<path fill="#5333ED" d="M1702.2,236.7c0,0-7.2,1.5-6.9,4c0.1,1.6,0.8,3.1,2.1,4.2c2.5,1.7,5.3,2.8,8.2,3.2l0.1-0.8
					c0,0-7.6-2.5-8.7-4.5c-1.4-2.5,0.2-3.4,1.1-3.9c0.6-0.3,4.6-1.6,4.6-1.6L1702.2,236.7z"/>
				<path fill="#5333ED" d="M1707,236.1c0,0,14.4-4.8,16.4-7.1c0,0-2.6,0-3.2,0.6c-1.6,1.5-12.1,5-14,5.9L1707,236.1z"/>
				
					<ellipse transform="matrix(-0.866 -0.5 0.5 -0.866 3115.9861 1268.5194)" fill="#120667" cx="1727.9" cy="216.8" rx="10.5" ry="6.1"/>
				<rect x="1723.7" y="218.2" fill="#5333ED" width="2.6" height="5.7"/>
				<rect x="1731.6" y="220" fill="#5333ED" width="1.3" height="5.7"/>
				<path fill="#EBA87C" d="M1683,228.8l-1.8,2.1c0,0,0.7,0.4,1.6-0.4l0.8-0.8l1.6-0.6l-1.9,1.4c0,0-1.2,2.4-0.2,2.5l1.6,0.1
					c0.2,0,0.4-0.1,0.6-0.3c0.2-0.3,0.3-0.5,0.4-0.8l1.4-0.8c1,0.8,4.8-2.4,4.8-2.4l-1.7-2.7l-4.4,1.7l-0.9,0.3L1683,228.8z"/>
				<path fill="#B7835F" d="M1718.5,189.3l-6.2,3.7c-0.4,22.8-21.8,32.5-22.5,32.8c-0.2,0-2.6,0.6-3.1,1.3c-0.3,0.4-1.2,1.8-1.2,1.8
					l-0.5,2c0.8-0.2,1.4-0.9,1.4-1.7l1.4-0.7c0,0,2.1,1.7,3.9,0.3l0,0C1723.1,218.1,1718.5,189.3,1718.5,189.3z"/>
				<path fill="#2CD4D9" d="M1711.5,193.1c0,0-0.8,9.7-3.1,14.3l5.8,3.6c1.6-2.7,3-5.4,4.2-8.3L1711.5,193.1z"/>
				<polygon fill="#DFE9F8" points="1708.6,206 1715,210.5 1713.6,212.9 1707.5,208.9 				"/>
				<path fill="#2CD4D9" d="M1715.2,209.3c0,0-2.3-5.6-2.5-8l0.4-2.2c0,0,1.9,7.5,2.6,9.2L1715.2,209.3z"/>
				<path fill="#B7835F" d="M1746.3,200.9c0,0-5,4.9-4.8,7.2c2.7,22-22.3,25.1-22.3,25.1s0.7,3.4,0.8,3.4
					C1759.1,235.3,1746.3,200.9,1746.3,200.9z"/>
				<path fill="#2CD4D9" d="M1739.7,220.1c0,0,1.6-9.3,1.2-13.4l5.2-6.5c0,0,6.6,6.2,1.2,21.5L1739.7,220.1z"/>
				<path fill="#B7835F" d="M1708.8,233.5c0,0,4.2-0.4,4.5-0.4l6.8-0.2l0.4,3.5c-2.1,0.9-4.4,1.4-6.8,1.3l-2.2,0.5
					c-0.4,0.5-1.1,0.8-1.8,0.8l1.1-1.4l2.7-1l-3.3,0.3c-0.9,0.6-2,0.6-3,0.1l2.4-1l2.7-0.5l-2.8,0.1c-0.7,0.7-1.7,1-2.7,0.7l2.4-1.7
					l2.9-0.5l-3.7,0.2c-0.7,0.4-1.5,0.4-2.2,0L1708.8,233.5z"/>
				<rect x="1719.9" y="214.5" fill="#5333ED" width="1.3" height="5.7"/>
				<path fill="#2CD4D9" d="M1743,198.3l-0.1-0.1c0,0-13.4-7.6-17.2-10s-6.5-2.1-6.5-2.1c-4.3,0-7.8,3.5-7.8,7.8
					c0,0.9,0.1,1.7,0.4,2.5c0,0,3.7,11.7,5,14.8c0.7,2.9,3.3,6.1,7.2,8.3c3.7,2.2,7.6,2.9,10.4,2.2c0.8-0.2,1.6-0.5,2.3-1l0.7-0.8
					c3.4-3.7,10.4-11.9,10.4-11.9C1749.2,204.1,1747.1,199.7,1743,198.3C1743,198.3,1743,198.3,1743,198.3z"/>
				<g>
					<polygon fill="#2CD4D9" points="1729.9,203.9 1729.9,209.4 1730.7,211.8 1734.8,214.1 1735.8,212.8 1735.8,207.4 					"/>
					<polygon fill="#DFE9F8" points="1729.8,203.4 1735.8,206.9 1735.8,208.1 1729.8,204.6 					"/>
				</g>
				<polygon fill="#DFE9F8" points="1738.3,222.1 1747.1,223.6 1748.6,220.4 1738.8,219.1 				"/>
				
					<ellipse transform="matrix(-0.5789 -0.8154 0.8154 -0.5789 2570.7192 1718.2394)" fill="none" stroke="#DFE9F8" stroke-width="1.3109" stroke-linecap="round" stroke-miterlimit="10" cx="1729.1" cy="195.3" rx="3.1" ry="5.3"/>
				<circle fill="#0C022F" cx="1726.5" cy="180.5" r="3.1"/>
				<path fill="#9E684D" d="M1733.1,194.7V186h-8.1v11.9C1725.1,200.5,1731.9,198.1,1733.1,194.7z"/>
				<path fill="#B7835F" d="M1725,191.7v-4.3l8.1-0.1v2.3c-1.2,2-3.2,3-6.8,2.4C1725.9,191.9,1725.4,191.9,1725,191.7z"/>
				<path fill="#B7835F" d="M1735,186.3c0.2-0.9-0.4-1.7-1.2-1.9c0,0-0.1,0-0.1,0v-1.9c0.1-2.8-2.2-5.2-5-5.2s-5.2,2.2-5.2,5
					l-0.1,4.3c-0.1,3.8,1.9,4.5,4.5,4.6c2.4,0.1,4.5-1.4,5.3-3.7C1734,187.6,1734.8,187.1,1735,186.3z"/>
				<path fill="#0C022F" d="M1734.6,182.1c0-0.1,0.3-2.3-0.3-3.3c-0.5-0.6-1.2-0.8-1.9-0.6c0,0-0.8-2-2.5-1.5
					c-0.1-0.4-0.3-0.7-0.6-1c0.5-0.4,0.5-1.1,0.1-1.6c-0.1-0.2-0.3-0.3-0.5-0.3c0,0,0.1-0.1,0.1-0.1c0-0.3-0.2-0.6-0.5-0.7
					c-0.3,0-0.6,0.2-0.7,0.5l0,0c0,0.1,0,0.1,0.1,0.2c-0.3,0.1-0.5,0.3-0.6,0.6c0,0,0,0-0.1,0c-0.5-0.1-1,0.3-1.1,0.8
					c0,0,0,0.1,0,0.1c-0.7,0.4-1.2,1.1-1.3,1.9c-0.2,1.4,0.8,2.7,2.3,2.9c0.6,0.1,1.2-0.1,1.7-0.4v0.1c0,0,1.1-0.8,1.8-0.3
					c0.5,0.4,0.6,1.1,0.2,1.7c0,0,0,0.1-0.1,0.1c0,0.1-0.1,0.3-0.1,0.4c-0.1,1.1,0.6,2.1,1.7,2.2h0.1c-0.1,0.2-0.8,1.1-0.4,1.6
					l0.7,0.2c0-0.6,0.4-1.1,1-1.2c0.1,0,0.3,0,0.4,0C1734.4,183.7,1734.6,182.9,1734.6,182.1z"/>
				<path fill="none" stroke="#DFE9F8" stroke-width="1.3109" stroke-linecap="round" stroke-miterlimit="10" d="M1724.7,198.3
					c1,1.4,3.7,1.1,6.1-0.6c1.8-1.3,2.9-3,2.9-4.4"/>
				<g>
					<polygon fill="#150773" points="1684.4,235.4 1685.9,235.3 1687.9,235.8 1691.3,234.3 1692,234.8 1690,236.5 1690.5,240.1 
						1687.5,239.4 1686.8,238.9 1685.5,238.6 1683.9,236.1 					"/>
					<path fill="#FFC398" d="M1677.5,262.1c2.2,0.1,4.4,0.4,6.5,0.8c1.5,0.5,2.5-2,1.5-3s-5.9-1.2-5.9-1.2L1677.5,262.1z"/>
					<path fill="#EBA87C" d="M1686.2,253.7c0,0-5.6,8-9.5,9.2l-1.6-3.2l0.5-5.6l2.7-3.9L1686.2,253.7z"/>
					<path fill="#EBA87C" d="M1673.1,240.8c-0.2,0.1-8.3,2.8-8.5,3s-5,2.6-5.7,5.7s-1.7,4.4-2.4,5s-4.2,1.8-1.4,3.7s4.3-1.4,4.3-1.4
						c2.1,0.6,4.4,0.3,6.2-1c0.5,0.5,1,0.9,1.7,1.2l-0.3-0.8l1.4,1.4l-0.2-0.9l1.2,0.8l-0.1-1l2.1,3.5c-0.7-1.4-0.8-3-0.2-4.4
						L1673.1,240.8z"/>
					<path fill="#FFC398" d="M1679.3,250.7c-0.9,0.9-1.8,1.9-2.6,3c-0.4,0.7-1.3,2.4-0.7,3.3s0,2.4-0.3,2.9s-4.9,0.5-4.9,0.5
						s-2.4-3.1-0.8-4.9c0,0-0.7-5.9-0.4-7.9c0.5-1.4,1-2.8,1.7-4.1l2.4-0.3L1679.3,250.7z"/>
					<path fill="#EBA87C" d="M1687.5,225.2c0.1-0.3,3.6-4.5,5.5-4.1s0.6,4.5,0,5.5c-0.7,1.2-1.1,2.6-1.3,4
						C1691.7,230.7,1686.9,227.9,1687.5,225.2z"/>
					<path fill="#FFC398" d="M1689.2,226.1c-1.9-2.3-6.9-0.5-6.9-0.5s-3.3,4.2-4.3,5.6c-1.1,1.4-2.4,2.6-3.9,3.7l1.2,0.9l-1.3,0.2
						l1.3,0.7l-1.8,1.3h1.5c-0.6,0.6-1.3,1.2-2.1,1.6c-0.8,0.5-3,1.5-3,1.5l2,0.6l-1.3,1.8l3.9,2.1l7.8-10.9l10.9-3.6l-1.4-0.6
						C1689.5,229,1691,228.4,1689.2,226.1z M1677.2,238.6L1677.2,238.6L1677.2,238.6z"/>
					<path fill="#FFC398" d="M1691.8,234.8l0.7,1.6l-0.8-0.3l1.1,1.2l-1.1-0.3c0.1,0,1.3,2.2,1.3,2.2l-1.6-0.3l0.1,3.2l0.7,3.4
						l-3.7-1.7l1.2-4.2l1.2-4.2L1691.8,234.8z"/>
					<path fill="#EBA87C" d="M1675.3,220.8c0.6-0.5,1.2-0.7,2.7,1.2c1.1,1.5,2.4,2.8,4,3.8c1.7,1,0,4.2-3.2,6.1
						C1675,234.2,1670.9,224.3,1675.3,220.8z"/>
					<circle fill="#0C022F" cx="1685.6" cy="229.7" r="0.9"/>
					<circle fill="#0C022F" cx="1690.5" cy="229.4" r="0.7"/>
					<path fill="#DFE9F8" d="M1693.3,232.7l-0.8-1.7c-1.2-0.3-2.4-0.7-3.5-1.3c-0.5-0.7-0.8-1.6-0.8-2.5c-0.1-0.8-0.7-1.4-1.4-1.5
						c0,0,0.8,0.6,0.9,1.2s-0.4,2.5,0.7,3.2s0.5,2.5-0.5,2.5s-1.1-0.1-1.4-0.9c0,0-0.6,1.2-2.7,1c0,0-0.7,0-0.7-1s-1.1-1.4-1.8-0.3
						s-1.5,2.6-2.4,2.7c0,0,0,0.4,0.9,0.4c-0.4,0.3-0.8,0.4-1.3,0.5c0,0,0.3,0.5,1.7,0.6c0,0,0.1,1.4-0.9,1.8
						c-0.3,0.2-0.6,0.4-0.8,0.7l-3.2,1.8l1,0.8l-2.5,4.5h0.7l-0.6,1.3l1,0.2c0,0-0.4,1.7-0.4,1.8s1.5-0.5,1.5-0.3s-0.8,2.7-0.8,2.7
						l1.6-0.3v1.7l2.6-1.4l1.1,2.1l1.3-1v1.8l1.3-0.5c0,0,0.1,1.5,0.1,1.7c0.8-0.1,1.6-0.3,2.4-0.5l-2.5,3.2
						c-0.2,1.3-0.1,2.7,0.5,3.9c0.4,1,0.3,2.4,1.1,3.1c1,0.8,3.3,1.2,4.4,0c1.6-1.7-0.7-2.5-1.2-4.3c-0.2-1,0.4-5.2,1.6-6.4
						c0.7-0.8,1-2,0.8-3.1c0-0.3,0.6,0.2,0.6,0.2l-0.2-3.6h0.8l-1.8-5.6l1.4,0.1l-0.9-1l-2.5-1.1l-0.8-0.7l-1.7-0.3l-1.4-1.9l0.1-1
						l0.9-0.5l2.5,0.4l4.2-1.1l-0.2,1.1C1692.6,235,1693.3,233.9,1693.3,232.7z"/>
					<path fill="#DFE9F8" d="M1676,259.5c-0.3,1.8,1.8,2.2,1.4,4.6c-0.3,1.6-3.8,2.4-5.4,0.5c-0.6-0.7-0.8-1.7-0.5-2.6
						c0-0.6-0.2-1.2-0.5-1.6C1670.4,259.8,1676,259.5,1676,259.5z"/>
					<path fill="#DFE9F8" d="M1656.8,254c0,0-3.6,1.4-2.6,3.3c1.1,2,3.4,2.3,4.4,0.9s1.3-2,1.3-2.4c-0.1-0.5-0.3-0.9-0.7-1.3
						C1658.5,254,1657.6,253.8,1656.8,254z"/>
					<ellipse fill="#0C022F" cx="1692" cy="232" rx="1.8" ry="1.1"/>
					<path fill="none" stroke="#0C022F" stroke-width="0.6554" stroke-linecap="round" stroke-miterlimit="10" d="M1691.1,235.4
						c0,0,1.2-0.3,0.8-0.8s-2.4,0.9-3.7,1.1s-2.4-0.5-3.1-0.4s-2.2,0.5-0.2,3c0.4,0.4,0.9,0.6,1.5,0.6c0.9,0,0.6,0.2,0.8,0.5
						c0.6,0.3,1.3,0.5,1.9,0.6"/>
					<path fill="#D36A83" d="M1691.7,242.7c0.7-0.3,1.1-1,1-1.8c-0.4-2.1-1.3-4-2.6-5.6c-0.8,0.4-1.6,0.6-2.5,0.7
						c0.7,0.7,1.2,1.6,1.4,2.7C1689,240.1,1688.7,243,1691.7,242.7z"/>
				</g>
			</g>
			<g>
				<path fill="#5B3427" d="M1228.6,240.7l-1,2.5c0,0,0.7,0.1,1.3-0.9l0.5-1l1.3-1.1l-1.3,1.9c0,0-0.2,2.6,0.6,2.3l1.5-0.5
					c0.2-0.1,0.4-0.3,0.4-0.5c0.1-0.3,0.1-0.6,0.1-0.9l1-1.3c1.2,0.4,3.6-3.9,3.6-3.9l-2.5-1.9l-3.5,3.1l-0.7,0.6L1228.6,240.7z"/>
				<path fill="#724C3B" d="M1233.8,235.5c0,0-2.2,1.5-2.5,2.3c-0.2,0.5-0.5,2.1-0.5,2.1l0.2,2c0.7-0.4,0.9-1.2,0.7-2l1-1.1
					c0,0,2.6,0.9,3.8-1.2L1233.8,235.5z"/>
				<path fill="#724C3B" d="M1251.2,202c1.1,10.2-0.6,24.5-14.6,35.7l-2.8-2.1c0,0,13.7-13,10.3-31.5c-0.3-1.8,0.9-6.3,2.6-7.2
					C1246.7,196.9,1250.4,194.4,1251.2,202z"/>
				<path fill="#724C3B" d="M1250.7,277.3l8.6,26.2c0,0-1.6,5.8-9.2,9.3c1.8,0,3.6-0.2,5.3-0.6c1.8-0.7,6.5-4.2,6.5-4.2l-0.3,3.5
					l0.9-0.1l1.3-4.6c0,0,0.3-2.8-1.4-3.9c0,0-3.1-23.5-3.3-26.5C1259.1,276.2,1250.7,277.3,1250.7,277.3z"/>
				<path fill="#724C3B" d="M1262.6,273.9l6.9,32.9c0,0,0.6,9,8.7,9.5c0,0-4.2-5.6-4.9-9.2c-0.5-2.5-2.4-30.6-2.2-33.1
					C1271.1,273.9,1262.6,273.9,1262.6,273.9z"/>
				<path fill="#0C022F" d="M1253.6,309.9c0,0,4.4-0.4,5.8-2.1c2.4-2.8,0.9-2.6,3-5c0,0,1.9,0.7,1.4,3.9c-0.2,1.2-1.3,4.6-1.3,4.6
					c-0.2,0.2-12.2,1.9-12.4,1.4C1249.6,311.3,1253.6,309.9,1253.6,309.9z"/>
				<path fill="#0C022F" d="M1277.1,315.8c-0.4,0.2-3.6-1.3-5.8-4.1c-1.7-2.3-1.2-2.8-2.2-5.9c0,0-1-0.3-1.7,2.8
					c-0.3,1.2,0.6,5.1,0.6,5.1c0.1,0.2,11.1,6.5,11.5,6.1c0.7-0.7-1.3-4.4-2.6-5.3C1276.9,314.5,1277.4,315.6,1277.1,315.8z"/>
				
					<linearGradient id="SVGID_14_" gradientUnits="userSpaceOnUse" x1="1260.4034" y1="537.4807" x2="1264.6134" y2="576.3107" gradientTransform="matrix(1 0 0 -1 0 838.9501)">
					<stop  offset="0" style="stop-color:#150773"/>
					<stop  offset="3.000000e-002" style="stop-color:#2E2384"/>
					<stop  offset="7.000000e-002" style="stop-color:#534C9C"/>
					<stop  offset="0.12" style="stop-color:#7572B2"/>
					<stop  offset="0.18" style="stop-color:#9292C5"/>
					<stop  offset="0.24" style="stop-color:#AAAED5"/>
					<stop  offset="0.3" style="stop-color:#BEC4E2"/>
					<stop  offset="0.38" style="stop-color:#CDD4EC"/>
					<stop  offset="0.48" style="stop-color:#D7E0F3"/>
					<stop  offset="0.62" style="stop-color:#DDE7F7"/>
					<stop  offset="1" style="stop-color:#DFE9F8"/>
				</linearGradient>
				<path fill="url(#SVGID_14_)" d="M1283.1,291c-0.3-3.2,0.3-9.7-0.5-12.8c-0.7-2.4-3.5-6.3-4.5-8.5c-2.5-5.6-5.7-24-5.7-24
					c-0.7-4.5-1.9-8.9-3.5-13.1c0,0-3.9,4.6-13.7,0.2c-4.2-1.8-7.3-5.4-8.3-9.9c-1.9,3.3-2.5,19.7-2.5,19.7s0.8,16.3-1.3,28.8
					c-0.6,3.6,1.1,4.8,0.9,7.5c-0.6,2.7,2,6.5,6.4,9c4.9,2.8,10.1,3,11.6,0.3c0.4-0.8,0.5-1.6,0.3-2.5l-0.5-7.7l2.3,11.9
					c0,0,0.1,0.3,0.3,0.6c0.7,2.5,3.1,5.4,6.7,7.5c5.2,3,10.8,3.2,12.4,0.3C1284.1,297.2,1283.5,294.6,1283.1,291z"/>
				<path fill="#DFE9F8" d="M1261.8,278.2l-5-30.5l-1.4-1.2l3.8,29.8c0.2,1.6,0.3,3.1,0.2,4.7l-0.2,8.8c1.3-0.3,2.5-1.3,2.9-2.6
					C1262.4,286.9,1261.8,278.2,1261.8,278.2z"/>
				<path fill="#0C022F" d="M1268.9,228.1l-0.5-0.2c-1.5-3.2-3.9-5.8-7-7.5c-2.6-1.5-5.5-2.4-8.4-2.5l0,0c-2.7,0-4.8,0.9-5.7,2.6
					c0,0,0,0.1-0.1,0.2l-0.5-0.2v2.2c0,1.5,0.4,2.9,1.1,4.1c3.3,5.1,8.8,8.3,14.9,8.6l0,0c2.7,0,4.8-0.9,5.7-2.6
					c0.4-0.7,0.5-1.4,0.5-2.2l0,0L1268.9,228.1z"/>
				<path fill="#DFE9F8" d="M1275.9,211.4c-0.3-0.9-0.8-1.6-1.5-2.2l-20-11.5c-1.8-1-3.7-1.5-5.7-1.6c-2.2,0-3.5,0.8-4.1,2.6
					c-0.6,1.9-0.9,3.8-0.7,5.8l1,14.2c0.3,1.9,1.3,3.6,2.7,4.9c1.5,3,3.8,5.4,6.8,7c3.2,1.7,6.8,2.5,10.4,2.2c2-0.1,5-1,6.1-2.1
					c0,0,1.6-1.1,1.4-5.3c-0.1-2.8,2.1-3.8,3.4-8.3C1276.2,215.3,1276.3,213.3,1275.9,211.4z"/>
				<path fill="#724C3B" d="M1301.4,209.8l-1.1,2l0.6-2.5c0.5-0.6,0.7-1.5,0.4-2.3l-1.1,1.7l-0.7,2l0.4-2.1c0.6-0.5,1-1.2,0.9-2
					l-1.6,1.7l-0.7,2.2l0.6-2.8c0.4-0.5,0.5-1.1,0.3-1.7l-1,1.6c0,0-0.8,3.2-0.9,3.4s-0.2,1.2-0.4,2.3l-0.8-0.8c0,0-0.1-1.6-0.8-1.9
					l0.1,2.4c0,0,0,2.6,1.1,2.9l0,0l0,0l0,0c0,0-12.1,26.3-20.5-1.7c0,0-0.9-3.6-2.8-3.9c-1.2-0.3-2.5,0.2-3.3,1.1
					c-0.7,1.3-0.7,2.9,0,4.2c0,0,14,38,29.3,1.7l0,0c0.9-1.7,1.5-3.5,1.8-5.3l0.7-1.6c0.4-0.3,0.7-0.7,0.8-1.3L1301.4,209.8z"/>
				<path fill="#5B3427" d="M1262.2,201.8c-0.1-2.3,0-7,0-7h-5.1v5.4c-0.5-0.1-1-0.1-1.5,0c-0.8,0.1-1.5,0.5-2,1.2
					c-1,1.7,0.6,4.4,3.5,6c2.9,1.6,6,1.7,7,0c0.7-1.1,0.1-2.7-1.1-4.1C1262.6,202.8,1262.4,202.3,1262.2,201.8z"/>
				<path fill="#724C3B" d="M1257.2,198.3v-5.8l5,3.2v4.8C1260.4,200.5,1258.3,200.7,1257.2,198.3z"/>
				<path fill="#724C3B" d="M1260.2,199.2L1260.2,199.2c2.2,0.4,4.2,0.1,4.9-3.6l0.8-4.2c0.6-2.6-1-5.1-3.6-5.7l0,0
					c-2.6-0.4-5,1.4-5.4,4l-0.6,3.2C1255.6,195.7,1257.3,198.5,1260.2,199.2C1260.2,199.2,1260.2,199.2,1260.2,199.2z"/>
				<circle fill="#724C3B" cx="1255.9" cy="192.9" r="1.6"/>
				<g>
					<path fill="#0C022F" d="M1258.3,184.9c-0.5-0.4-1.2-0.6-1.8-0.7c0.6-0.4,1.3-0.8,2-1c-0.1,0.4-0.2,0.9-0.3,1.3
						C1258.2,184.7,1258.3,184.8,1258.3,184.9z"/>
					<path fill="#0C022F" d="M1256.5,184.2c0.6,0.1,1.3,0.3,1.8,0.7c0-0.1-0.1-0.3-0.1-0.4c0-0.4,0.1-0.9,0.3-1.3
						c0.7-0.3,1.4-0.4,2.2-0.4c4,0,6.8,3.3,7.3,7.3c0.1,0.8-0.1,1.8-1.7,2c-2.2,0.3-5-2.1-6.3-3.6c-0.4,1.9-3.2,1.5-3.2,4
						c0,0.6-1.9,0.3-2.4-1.6C1253.8,187.3,1254.3,185.9,1256.5,184.2z"/>
				</g>
				<path fill="#0C022F" d="M1255.7,185.5c0,0-1.4-0.3-0.8-2.6c0.7-2.3,1.6-4.6,1.6-4.6c0.4-0.8,1.4-1.2,2.3-1
					c1.6,0.3,1.1,2.2,1.1,2.2l-1.5,4.4c-0.1,1.2-1.2,2-2.3,1.8C1255.9,185.6,1255.8,185.6,1255.7,185.5z"/>
				<polygon fill="#5333ED" points="1256,179.6 1259.7,180.1 1259.2,181.4 1256.2,180.8 1258.9,182.2 1258.5,183.5 1255.2,181.9 
									"/>
			</g>
			<g>
				<polygon fill="#2CD4D9" points="1514.6,400.2 1514,397.1 1514.7,393.8 1518.8,394.8 1518.2,396.7 1526.1,401.3 				"/>
				<polygon fill="#0C022F" points="1529.9,402.8 1517.4,401.8 1517.4,402.3 1513,401.9 1513,401.4 1513,400.7 1530,402.1 				"/>
				<path fill="#150773" d="M1513,400.7c0.1-1.2,0.4-2.4,1-3.5l3.3,0.6c0-0.5,0.5-1,1-1.1c0,0,4.4,2.2,11.5,4.8
					c0.2,0.1,0.2,0.7,0.2,0.7L1513,400.7z"/>
				<polygon fill="#2CD4D9" points="1502.7,402.5 1504.9,400.7 1505,398.6 1509.1,398.1 1509.1,404.2 1513.7,418.4 1513.2,418.9 
									"/>
				<polygon fill="#0C022F" points="1512.7,419.4 1504.4,406.5 1504.1,406.8 1501.8,403.1 1502.3,402.8 1502.7,402.5 1513.4,418.9 
									"/>
				<path fill="#150773" d="M1502.7,402.5c0.6-0.7,1.3-1.4,2.2-1.8l2.7,3.4c0.4-0.3,1-0.3,1.4,0.1c0,0,2.4,6.9,4.6,14.2
					c0.1,0.2-0.4,0.6-0.4,0.6L1502.7,402.5z"/>
				<path fill="#DFE9F8" d="M1507.9,298.4c0,0,0.4,29.6,11.5,32.6c0.2,1-0.1,2-0.7,2.8c-1.5,1.6-2.9,1.2-2.9,1.2
					s-12.7-3.4-13.8-25.8L1507.9,298.4z"/>
				<path fill="#120667" d="M1499.2,321.9l-17.6,8.3l0,0c-1.5,4-2.3,8.3-2.3,12.6c0,15.4,11,15.6,27.2,20.8c1,0.3,4.3,1.1,4.3,1.1
					c-2.3,8.3-5.9,35.2-5.9,35.2h4c0,0,12-38.6,9.9-39.7l-23.9-15.8l28.1,13.9c0,0-3.6,2.3-8.8,36.2l5,0.6l11.6-40.1
					c1.5-4-27.5-14.5-28.3-19.3L1499.2,321.9z"/>
				<path fill="#EBA87C" d="M1519.9,331.4c0,0,0.1-2.5-0.4-3.2c-0.3-0.4-1.4-1.5-1.4-1.5l-1.7-0.9c0,0.8,0.5,1.4,1.2,1.7l0.3,1.4
					c-1.1,0.7-1.6,2.2-1,3.4L1519.9,331.4z"/>
				
					<rect x="1513.9" y="394.2" transform="matrix(-0.9951 -9.879863e-002 9.879863e-002 -0.9951 2987.0342 937.7789)" fill="#DFE9F8" width="5.7" height="1.4"/>
				
					<rect x="1504.5" y="398.8" transform="matrix(-0.9951 9.897230e-002 -9.897230e-002 -0.9951 3045.9285 647.893)" fill="#DFE9F8" width="4.8" height="1.4"/>
				<path fill="#DFE9F8" d="M1499.9,291c-1.2,0.2-2.5,0.4-3.7,0.8c-4.3,1.6-10.5,4.9-14.3,6.7c-2.7,1.3-5.2,3.1-7.2,5.4l0,0
					l-0.2,0.3l-0.1,0.2c-3.3,4.5-30,42.5,13.8,35.7l0.3-5.3c0,0-28.7,5.4-11.6-15.9l2,4c0.6,1.2,0.4,1.7,0.5,3
					c0.1,0.9-0.9,3.4,1.2,3.4h0.3l18.4-10.7l0,0c1.6,0,1.1-1.8,1.2-2.5c0.7-3.9,7.2-14.1,7.2-14.1c1.5-4.3-0.9-9-5.2-10.5
					C1501.7,291.2,1500.8,291,1499.9,291z"/>
				<path fill="#FFC398" d="M1498.4,335.7l2.5,1.7c0,0-0.6,0.6-1.8,0l-1-0.6l-1.8-0.2l2.3,0.9c0,0,1.9,2.2,0.9,2.5l-1.7,0.5
					c-0.2,0.1-0.5,0-0.7-0.1c-0.2-0.2-0.5-0.5-0.7-0.8l-1.7-0.5c-0.8,1.1-5.7-1.3-5.7-1.3l0.4-3.4l5.8,0.7l1,0.1L1498.4,335.7z"/>
				<g>
					<polygon fill="#43414E" points="1487.9,346.4 1498,348.7 1514.9,339.2 1505.2,336.7 					"/>
					
						<linearGradient id="SVGID_15_" gradientUnits="userSpaceOnUse" x1="2052.5356" y1="2836.8779" x2="2055.9456" y2="2835.2678" gradientTransform="matrix(0.871 -0.4912 -0.4912 -0.871 1101.6271 3821.9377)">
						<stop  offset="0" style="stop-color:#6E7075"/>
						<stop  offset="1" style="stop-color:#43414E"/>
					</linearGradient>
					<polygon fill="url(#SVGID_15_)" points="1494.5,343.3 1498.3,344.1 1498.4,344.1 1498.7,340.9 					"/>
					<polygon fill="#6E7075" points="1496.8,347.8 1497.8,348 1499,347.3 1497.9,347.2 					"/>
					<polygon fill="#6E7075" points="1495.5,347.4 1496.5,347.6 1497.6,347 1496.6,346.8 					"/>
					<polygon fill="#6E7075" points="1494.3,347.1 1495.3,347.3 1496.4,346.7 1495.4,346.5 					"/>
					<polygon fill="#6E7075" points="1496.9,346.6 1497.9,346.9 1499,346.2 1498,346 					"/>
					<polygon fill="#6E7075" points="1495.7,346.3 1496.7,346.5 1497.8,345.9 1496.8,345.7 					"/>
					<polygon fill="#6E7075" points="1497,345.5 1498,345.7 1499.1,345.1 1498.1,344.9 					"/>
					<g>
						<polygon fill="#6E7075" points="1498,348.7 1499.4,333.4 1516.3,323.9 1514.9,339.2 						"/>
						<path fill="#FFFFFF" d="M1508,337c-0.4,0.2-0.7-0.1-0.6-0.6c0.1-0.6,0.4-1.1,0.8-1.4c-0.2-0.2-0.5-0.2-0.8,0
							c-0.7,0.5-1.2,1.3-1.3,2.1c-0.1,0.8,0.4,1.2,1,0.9C1507.5,337.7,1507.8,337.4,1508,337z"/>
					</g>
				</g>
				<polygon fill="#DFE9F8" points="1486.8,335 1487.3,340.2 1486.6,340.3 1486.3,335 				"/>
				<polygon fill="#DFE9F8" points="1489.8,334.4 1490.4,339.3 1487.3,340.5 1486.8,334.8 				"/>
				<circle fill="#5333ED" cx="1488.3" cy="339.2" r="0.4"/>
				<path fill="#DFE9F8" d="M1476.9,318.8c0,0,3.7-4.4,4.8-7.1l0.2,1.8c-1.3,2.2-2.8,4.4-4.5,6.4L1476.9,318.8z"/>
				<path fill="#FFC398" d="M1515.9,326.9l-2.6,0.1c0,0,0.2,0.7,1.3,0.8h1l1.4,0.7l-2.1-0.4c0,0-2.4,0.8-1.8,1.5l1,1.2
					c0.1,0.1,0.4,0.2,0.6,0.2c0.3-0.1,0.6-0.1,0.8-0.3l1.5,0.4c-2.8,2.7,0.2,2.9,0.2,2.9c1.9-0.5,3-2.3,2.6-4.2
					c-0.1-0.6-1.4-1.8-1.4-1.8l-0.8-0.4L1515.9,326.9z"/>
				<path fill="#5333ED" d="M1481.9,331.1c1.6,2.7,6.6,2.7,11.3,0s7.2-7.1,5.6-9.8l-17.3,8.9
					C1481.7,330.5,1481.8,330.8,1481.9,331.1z"/>
				<polygon fill="#120667" points="1485.8,330.2 1484.1,331.1 1484.1,333.6 1485.8,333.6 				"/>
				<polygon fill="#120667" points="1498.7,323.9 1497.3,324.3 1497.3,329.2 1498.7,329.2 				"/>
				<polygon fill="#120667" points="1495.8,324.3 1492.4,326.2 1492.4,331.9 1495.8,331.9 				"/>
				
					<ellipse transform="matrix(-0.5 -0.866 0.866 -0.5 1955.406 1774.98)" fill="#DFE9F8" cx="1490.1" cy="323" rx="6.8" ry="11.7"/>
				<path fill="#EBA87C" d="M1493.3,295.8v-7h-7v7c0,1.7-1.3,5-3,5l6.4,7.1l6.5-7.1C1494.6,300.7,1493.3,297.4,1493.3,295.8z"/>
				<path opacity="0.5" fill="#FFC398" enable-background="new    " d="M1486.3,291.8v-2.1l6.9,0.2v1.7c-1.7,1.3-4,1.5-6,0.6
					C1486.9,292.2,1486.6,292,1486.3,291.8z"/>
				<path fill="#FFC398" d="M1491.7,276.9c3,0.3,5.1,3,4.8,6l-0.3,2c0,0,0.1,0,0.1,0c0.9,0.3,1.4,1.3,1.1,2.2
					c-0.3,0.8-1.2,1.3-2,1.1c-1.1,2.3-3.6,3.7-6.2,3.3c-2.7-0.3-4.8-1.3-4.3-5.4l0.6-4.6C1486,278.6,1488.7,276.5,1491.7,276.9z"/>
				<path fill="#5333ED" d="M1491.7,276.9c3,0.3,5.1,3,4.8,6l-0.2,1.2l-0.1,0.7l-0.7,1.3l-1.2-0.6l0.7-1.4c-1.6-0.5-0.7-2-0.7-2
					c0.4-0.6,0.4-1.5,0-2.1c-0.7-1.1-2.1-1.4-3.1-0.7c-0.2,0.1-0.3,0.2-0.4,0.4c-0.4,0.6-1,0.9-1.7,0.8c-1.1,0-1.9-0.9-1.9-1.9
					c0,0,0,0,0,0c0-0.1,0-0.2-0.1-0.2C1488.3,277.2,1490,276.7,1491.7,276.9z"/>
				<path fill="#DFE9F8" d="M1493.3,291.7c0.1,1.6-0.3,3.2-1.2,4.5c0,0-5.1-0.1-5.7-1.2c-0.1-0.2-0.1-0.4-0.1-0.7h-0.1l-1.6,2.5
					l-2.2,3.7l7.3,7.6l9-9.5L1493.3,291.7z"/>
				<path fill="#2CD4D9" d="M1491.8,299.1l0.6-1.9l1.9,0.4c0,0,1.3,1.7-0.2,2.5S1491.8,299.1,1491.8,299.1z"/>
				
					<linearGradient id="SVGID_16_" gradientUnits="userSpaceOnUse" x1="1492.3495" y1="521.9803" x2="1492.1195" y2="536.2803" gradientTransform="matrix(1 0 0 -1 0 838.9501)">
					<stop  offset="0" style="stop-color:#5333ED"/>
					<stop  offset="1" style="stop-color:#2CD4D9"/>
				</linearGradient>
				<path fill="url(#SVGID_16_)" d="M1492.5,299.4c0,0,0,7.6-1.8,11.3s-0.6,6.8,2,7l0.6-1.9c-0.7,0-1.3-0.5-1.4-1.2
					c-0.3-1.6,1.2-4,1.4-5c0.4-1.3,1.1-3.7,1.3-10.2L1492.5,299.4z"/>
			</g>
			<path fill="none" stroke="#2CD4D9" stroke-width="2.1139" stroke-miterlimit="10" d="M1604.3,207.4l-160.6-92.7l-219.3,33.9
				l-58.8,126.6l160.5,92.7l219.3-33.9L1604.3,207.4z"/>
			
				<linearGradient id="SVGID_17_" gradientUnits="userSpaceOnUse" x1="1207.7631" y1="609.255" x2="1257.2269" y2="609.255" gradientTransform="matrix(1 0 0 -1 0 838.9501)">
				<stop  offset="0" style="stop-color:#150773"/>
				<stop  offset="0.5" style="stop-color:#5333ED"/>
				<stop  offset="1" style="stop-color:#2CD4D9"/>
			</linearGradient>
			<polygon fill="none" stroke="url(#SVGID_17_)" stroke-width="2.1139" stroke-miterlimit="10" points="1208.8,192.5 1256.2,219.8 
				1256.2,266.9 1208.8,239.6 			"/>
			
				<linearGradient id="SVGID_18_" gradientUnits="userSpaceOnUse" x1="1377.21" y1="816.6901" x2="1689.1" y2="816.6901" gradientTransform="matrix(1 0 0 -1 0 838.9501)">
				<stop  offset="0" style="stop-color:#FFFFFF;stop-opacity:0.3"/>
				<stop  offset="0.33" style="stop-color:#FFFFFF;stop-opacity:0.22"/>
				<stop  offset="1" style="stop-color:#FFFFFF;stop-opacity:0"/>
			</linearGradient>
			<polygon fill="url(#SVGID_18_)" points="1689.1,-38.5 1377.2,141.5 1377.2,83.1 1689.1,-97 			"/>
			<g>
				<polygon fill="#F2F6FC" points="1388.6,84.5 1388.6,134.9 1438.6,106.1 1438.6,55.7 				"/>
				<polygon fill="#FFFFFF" points="1438.6,55.7 1438.5,47.6 1388.6,76.5 1388.6,84.5 				"/>
				<polygon fill="#120667" points="1388.6,76.5 1377.2,83.1 1377.2,91.1 1388.6,84.5 				"/>
				<g>
					<polygon fill="#2CD4D9" points="1388.6,84.5 1377.2,91.1 1377.2,95.9 1388.6,89.3 					"/>
					<polygon fill="#120667" points="1377.2,95.9 1377.2,141.5 1388.6,134.9 1388.6,89.3 					"/>
				</g>
				<polygon fill="#2CD4D9" points="1386.3,81.5 1379.8,85.3 1379.8,86.7 1386.3,82.9 				"/>
			</g>
			<g opacity="0.2">
				<polygon fill="#DFE9F8" points="1533.9,0.6 1533.9,51.1 1583.8,22.2 1583.8,-28.2 				"/>
				<polygon fill="#FFFFFF" points="1583.8,-28.2 1583.8,-36.2 1533.9,-7.4 1533.9,0.6 				"/>
				<polygon fill="#120667" points="1533.9,-7.4 1522.5,-0.8 1522.5,7.2 1533.9,0.6 				"/>
				<g>
					<polygon fill="#2CD4D9" points="1533.9,0.6 1522.5,7.2 1522.5,12 1533.9,5.4 					"/>
					<polygon fill="#120667" points="1522.5,12 1522.5,57.6 1533.9,51.1 1533.9,5.4 					"/>
				</g>
				<polygon fill="#2CD4D9" points="1531.5,-2.4 1525,1.4 1525,2.8 1531.5,-1 				"/>
			</g>
			<g>
				<path fill="#B7835F" d="M1448.7,146.9l6.6,38.9c0,0-1.7,6-9.5,9.6c1.8,0,3.7-0.3,5.5-0.6c1.9-0.7,6.7-4.4,6.7-4.4l-0.3,3.6
					l0.9-0.1l1.3-4.7c0,0,0.3-2.8-1.4-4c0,0-1.1-30.8-1.3-33.9C1457.2,151.2,1448.7,146.9,1448.7,146.9z"/>
				<path fill="#B7835F" d="M1458.9,154.9l2.4,34.1c0,0,0.4,6.2,3.6,10.6c0,0,1.4-6.1,0.2-9.7c-0.3-1.2-0.4-2.4-0.3-3.6
					c0.7-7.4,2.7-28.7,2.8-31.3C1467.7,154.9,1458.9,154.9,1458.9,154.9z"/>
				<path fill="#0C022F" d="M1461.7,191.5c0,0,1.3,7.6,3.6,10.2c0,0,1.4-3.7,0-11.2c0,0-0.2,5.9-0.8,7.1L1461.7,191.5z"/>
				<path fill="#0C022F" d="M1448.8,193.7c0,0,4.4-0.3,6.7-3.4s0.9-2.7,3-5.2c0,0,1.7,0.7,1.4,4l-1.3,4.7c-0.2,0.2-0.8,0.3-0.9,0.1
					l0.3-3.6c0,0-4.9,4.2-6.7,4.5s-6.1,1.1-5.5,0.5L1448.8,193.7z"/>
				<path opacity="0.5" fill="#EBA87C" enable-background="new    " d="M1449.6,152.4c0,0,2,4.1,7.9,5.2v-2.2l1.5,0.6l0.1,2.3
					c2.6,1.3,5.7,1.3,8.3,0l0.3-3.2l-18.7-7.3L1449.6,152.4z"/>
				<circle fill="#5333ED" cx="1474.2" cy="92.5" r="2.7"/>
				<path fill="#120667" d="M1469,154.3c0,0,0-0.1,0-0.1c1-3.5,8.2-29.2-0.1-39.7l-20.7-7.6c-8.4,12,0,40.1,0,40.1h0.1
					c0.5,2.9,3.1,6.2,7.1,8.5c5.5,3.2,11.4,3.2,13.3,0c0.1-0.3,0.3-0.6,0.3-0.9l0,0L1469,154.3z"/>
				<path fill="#0C022F" d="M1470.9,111l-0.6-0.2c-1.5-3.3-4.1-6-7.3-7.7c-2.6-1.6-5.6-2.5-8.7-2.6l0,0c-2.8,0-4.9,1-5.9,2.7
					c0,0,0,0.1-0.1,0.2l-0.5-0.2v2.2c0,1.5,0.4,3,1.2,4.3c3.4,5.2,9.1,8.5,15.3,8.8l0,0c2.8,0,4.9-1,5.9-2.7
					c0.4-0.7,0.6-1.4,0.6-2.2l0,0L1470.9,111z"/>
				<path fill="#5333ED" d="M1453,76.6L1453,76.6c0-0.1,1.8-0.2,2.2-2.7c0,0,0-0.2,0-0.4c0.4-4.1,4.1-7.1,8.2-6.7
					c3.8,0.4,6.7,3.5,6.8,7.3c0,0-0.4,4.6,2.6,6.4c1.3,0.9,2.2,2.4,2.3,4.1c1.9,0.4,3.3,2.2,3.2,4.2c-0.2,2.3-2.1,4-4.4,3.8
					c-0.9-0.1-1.7-0.4-2.4-1c-1,0.5-2.1,0.8-3.2,0.7c-2.5-0.2-4.7-1.8-5.6-4.1l-3.7-4.4c-1.2,2.6-4.3,3.8-6.9,2.7
					c-2.6-1.2-3.8-4.3-2.7-6.9C1450.2,78.1,1451.4,77,1453,76.6L1453,76.6z"/>
				
					<linearGradient id="SVGID_19_" gradientUnits="userSpaceOnUse" x1="1460.8495" y1="753.6326" x2="1453.4495" y2="758.0626" gradientTransform="matrix(1 0 0 -1 0 838.9501)">
					<stop  offset="0" style="stop-color:#150773"/>
					<stop  offset="1" style="stop-color:#5333ED"/>
				</linearGradient>
				<path fill="url(#SVGID_19_)" d="M1457,75l-1.4,0.3c0,0,0.3,3.5-0.6,4.6s-2.4,1.5-2.9,4.1c-1.2,0.3-2.2,1.3-2.5,2.5h12.3l0.2-7.4
					L1457,75z"/>
				
					<linearGradient id="SVGID_20_" gradientUnits="userSpaceOnUse" x1="1465.1373" y1="749.3124" x2="1468.5173" y2="753.0225" gradientTransform="matrix(1 0 0 -1 0 838.9501)">
					<stop  offset="0" style="stop-color:#150773"/>
					<stop  offset="1" style="stop-color:#5333ED"/>
				</linearGradient>
				<path fill="url(#SVGID_20_)" d="M1466.8,79.3c0,0-0.7,4.3,2.2,5.4c2.5,1,2.4,4.7,3.6,7.9c0.8,2-8.6-1.3-8.6-1.3l0.2-12.3
					L1466.8,79.3z"/>
				<path fill="#EBA87C" d="M1420.4,87.3l-1.9-2.2c-0.2,0.4-0.2,1,0.1,1.4l0.9,1.4l0.6,1.6l-2,2c-0.8,1,2.6,4.9,2.6,4.9l2.8-1.9
					l-1.9-4.5l-0.4-0.9L1420.4,87.3z"/>
				<path fill="#B7835F" d="M1423.4,94.4c0,0-0.7-2.7-1.4-3.2c-0.6-0.3-1.3-0.5-2-0.5l-1.5,1.4c0.6,0.3,1.3,0.1,1.7-0.5l0.6,0.4
					c0,0-2,2.4-0.3,4.3L1423.4,94.4z"/>
				<path fill="#DFE9F8" d="M1454.1,85c0,0-11.6,50.6-34.6,12.1l3.7-3.4c0,0,13.6,26.1,19.6-7.2L1454.1,85z"/>
				
					<linearGradient id="SVGID_21_" gradientUnits="userSpaceOnUse" x1="1462.1265" y1="750.4801" x2="1461.4464" y2="721.5001" gradientTransform="matrix(1 0 0 -1 0 838.9501)">
					<stop  offset="0" style="stop-color:#5333ED"/>
					<stop  offset="1" style="stop-color:#2CD4D9"/>
				</linearGradient>
				<path fill="url(#SVGID_21_)" d="M1478.4,97.5c-0.3-0.9-0.8-1.7-1.6-2.3l-20.6-11.9c-1.8-1-3.8-1.6-5.9-1.7
					c-2.3,0-3.7,0.9-4.2,2.6c-0.6,1.9-0.9,4-0.8,6l1,14.6c0.3,2,1.3,1,2.8,2.3c1.5,3.1,4,5.6,7,7.2c3.3,1.8,7,2.6,10.7,2.3
					c2.1-0.1,5.1,1.8,6.3,0.7c0,0,1.7-1.2,1.5-5.4c-0.1-2.9,2.2-3.9,3.5-8.6C1478.8,101.5,1478.8,99.5,1478.4,97.5z"/>
				<path fill="#DFE9F8" d="M1474.4,93l-0.1-0.1c0,0-13.5-7.6-17.4-10s-6.6-2.1-6.6-2.1c-4.3,0-7.9,3.5-7.9,7.9
					c0,0.9,0.1,1.7,0.4,2.6l2.4,20.7c0,0,1.3,3.6,2.6-0.2c1.2-3.5-0.4-12.4,0.2-18.4c0.2-3.1,1.7-6,4.2-7.9c2.2-1.5,5.2-0.5,5.2-0.5
					c2.7,1.1,5.4,2.5,7.8,4c3.1,2,4.9,5.4,3.8,7.2c-0.9,1.6-1.6,3.3-1.8,5.1c-0.7,5.6-0.1,11.3,1.7,16.7c0,6.3,7.8,5.8,7.8,5.8
					l2.4-20.7C1480.7,98.9,1478.5,94.5,1474.4,93C1474.4,93,1474.4,93,1474.4,93z"/>
				<path fill="#B7835F" d="M1464.3,87.5c-0.1-2.4,0-7.2,0-7.2h-5.3v5.5c-0.5-0.1-1-0.1-1.5,0c-1,0.1-2.7,0.3-2.7,0.3l1.9,12.1
					l10.6-6c-0.7-1.1-1.4-2.2-2.3-3.2C1464.6,88.6,1464.4,88.1,1464.3,87.5z"/>
				<path opacity="0.5" fill="#EBA87C" enable-background="new    " d="M1459.1,83.9v-6l5.2,3.3v2.5
					C1463.4,84.5,1460.2,86.1,1459.1,83.9z"/>
				<path fill="#EBA87C" d="M1460.8,83.3L1460.8,83.3c-2.3-0.1-4.2-0.8-4.1-4.7l0.1-4.4c0-2.7,2.1-5,4.8-5l0,0
					c2.7,0.2,4.7,2.6,4.5,5.3l-0.1,3.4C1466.2,80.8,1463.8,83.3,1460.8,83.3z"/>
				<circle fill="#EBA87C" cx="1466.5" cy="77.9" r="1.6"/>
				<g>
					<path fill="#5333ED" d="M1464.2,68.6c0.6-0.4,1.2-0.6,1.9-0.7c-0.6-0.5-1.3-0.8-2.1-1c0.1,0.4,0.2,0.9,0.3,1.4
						C1464.3,68.3,1464.2,68.5,1464.2,68.6z"/>
					<path fill="#5333ED" d="M1464.2,68.6c-2-1.3-9,1.1-9,5.3c0,0.3,0.2,1.4,0.2,1.7c2.3,0.3,5.8-1.7,7.1-3.2c0.4,1.9,2,3.9,4.1,3.9
						c0.9,0,1.8-0.3,2.5-0.9C1469.2,74.9,1464.8,69,1464.2,68.6z"/>
				</g>
				<path fill="#EBA87C" d="M1458.5,89.5c0,0,1.6,3,1.7,3.2s2.3,5,2.3,5l-2.2,1.9c-1.4-1.4-2.5-3.1-3.3-5l-1.1-1.5
					c-0.5-0.2-0.9-0.5-1.2-1l1.4,0.4l1.6,1.7l-1.3-2.4c-0.7-0.5-1.1-1.3-1-2.1l1.5,1.5l1.2,1.9l-1-2c-0.7-0.3-1.3-1-1.4-1.8l2,1.3
					l1.3,2l-1.3-2.6c0,0-0.9-0.7-0.7-1.6L1458.5,89.5z"/>
				<path fill="#DFE9F8" d="M1478.8,96.9c7.3,13.9-7,50.4-20.1,3.7l3.7-3.4c0,0,9.4,28,13.4,11.3
					C1475.9,108.4,1477.4,94.2,1478.8,96.9z"/>
				<path fill="#DFE9F8" d="M1473,105c0,0,1,11.6-6,1.9v1c0,0,3.6,6.1,5.6,4s1.4-5.3,1.4-5.3L1473,105z"/>
				<polygon fill="#DFE9F8" points="1444.7,106.4 1443.9,98 1443.4,98.8 1443.9,107.4 				"/>
			</g>
			
				<linearGradient id="SVGID_22_" gradientUnits="userSpaceOnUse" x1="1224.303" y1="869.2005" x2="1690.1571" y2="869.2005" gradientTransform="matrix(1 0 0 -1 0 838.9501)">
				<stop  offset="0" style="stop-color:#2CD4D9;stop-opacity:0.3"/>
				<stop  offset="0.38" style="stop-color:#2CD4D9;stop-opacity:0.2"/>
				<stop  offset="1" style="stop-color:#2CD4D9;stop-opacity:0"/>
			</linearGradient>
			<polygon fill="none" stroke="url(#SVGID_22_)" stroke-width="2.1139" stroke-linecap="round" stroke-miterlimit="10" points="
				1689.1,-109 1689.1,-155.5 1377.2,24.6 1225.4,48.9 1225.4,95.6 1377.2,71.3 			"/>
		</g>
	</g>
</g>
</svg>
